<svg xmlns="http://www.w3.org/2000/svg" width="20" height="20" fill="none"><path fill="#fff" fill-rule="evenodd" d="M13.971 16.166a2 2 0 0 1-.144.063l-1.949.73a5.34 5.34 0 0 1-3.756 0l-1.949-.73a2 2 0 0 1-.144-.063l-2.127 1.758A9.95 9.95 0 0 0 10 20a9.95 9.95 0 0 0 6.098-2.076zm5.98-7.16-5.084 2.568q.017.114.017.233v2.897q0 .19-.043.371l2.312 1.911a9.97 9.97 0 0 0 2.798-7.98m-19.902 0a9.97 9.97 0 0 0 2.798 7.98l2.312-1.91a1.6 1.6 0 0 1-.043-.372v-2.897q0-.119.017-.233zM.3 7.568l5.617 2.838q.122-.072.257-.123l1.949-.73a5.34 5.34 0 0 1 3.756 0l1.949.73q.135.051.257.123L19.7 7.568C18.615 3.223 14.681 0 10 0S1.385 3.223.299 7.568Zm6.817-1.127a1.043 1.043 0 0 1-1.674 0 .698.698 0 0 0-1.116.838 2.44 2.44 0 0 0 3.907 0 .698.698 0 0 0-1.117-.838m7.442 0a1.043 1.043 0 0 1-1.674 0 .698.698 0 0 0-1.116.838 2.44 2.44 0 0 0 3.906 0 .698.698 0 0 0-1.116-.838" clip-rule="evenodd"/></svg>