<svg xmlns="http://www.w3.org/2000/svg" width="21" height="22" fill="none"><path fill="#fff" d="M7.05 19.378a2.65 2.65 0 0 0 1.733 2.465c1 .377 2.204.056 2.887-.768a2.7 2.7 0 0 0 .627-1.663v-.037H7.05zm12.294-2.791a1.82 1.82 0 0 0-1.214-1.675 1.6 1.6 0 0 0-.42-.087v-3.644a5 5 0 0 1-.266.089q-.012.003-.02.007l-.084.025-.116.032a5.78 5.78 0 0 1-3.773-.306l-.061-.027-.106-.05-.005-.002-.084-.042s-.002 0-.002-.003l-.077-.04-.042-.021-.032-.018-.047-.024-.054-.03q-.012-.006-.02-.012l-.064-.037-.022-.013c-.028-.014-.052-.032-.08-.049a3 3 0 0 1-.157-.104l-.042-.03-.045-.029-.071-.05q-.024-.016-.047-.034l-.027-.022-.047-.037-.017-.012-.062-.05-.07-.056-.066-.057-.002-.003q-.007-.004-.01-.01l-.042-.037-.012-.01-.005-.004-.008-.008-.032-.027-.002-.002-.03-.027-.005-.003-.007-.005q-.014-.01-.027-.024l-.04-.038-.012-.012-.02-.02-.034-.032-.025-.022-.077-.076-.074-.077q-.074-.077-.145-.158-.037-.04-.07-.081a2 2 0 0 1-.135-.166l-.067-.083s0-.003-.002-.003l-.057-.076-.012-.018-.05-.069-.002-.002q-.002-.005-.005-.005l-.005-.008-.037-.054-.005-.005-.022-.034-.042-.065-.007-.01a5.4 5.4 0 0 1-.486-.935l-.025-.061-.022-.055-.008-.02a5.5 5.5 0 0 1-.244-.833l-.012-.057a5.6 5.6 0 0 1-.09-1.656l.01-.086.01-.091.003-.025.01-.08.015-.095.014-.087q.004-.026.01-.051l.005-.033.015-.071.005-.02.02-.084.022-.091.017-.074.01-.035.017-.061.008-.025.02-.064.017-.052.007-.022q.004-.016.01-.027.007-.027.017-.055a5.55 5.55 0 0 1 1.115-1.986l.003-.002A5.7 5.7 0 0 1 12.733.985q.013-.007.025-.017l.087-.055a3 3 0 0 1 .279-.158A8.19 8.19 0 0 0 6.24.76a8.04 8.04 0 0 0-4.599 7.015c-.01.28-.005.56-.005.842v3.674c0 .846-.01 1.693-.002 2.54a1.8 1.8 0 0 0-.538.127A1.81 1.81 0 0 0 0 16.61v1.463c0 .2.17.37.37.37h17.843c.242 0 .484.006.725 0h.032c.2 0 .37-.17.37-.37v-1.468q.004-.008.003-.017Z"/><path fill="#fff" d="m20.718 5.436-.014-.17q-.005-.051-.013-.101l-.002-.02v-.003l-.003-.014a6 6 0 0 0-.158-.718 6 6 0 0 0-.113-.346l-.06-.153-.007-.02V3.89l-.005-.012-.032-.074a5.3 5.3 0 0 0-.545-.938l-.057-.077q0-.003-.005-.007-.004-.003-.005-.007l-.002-.005s-.003-.003-.003-.005l-.096-.119a5.3 5.3 0 0 0-.772-.752l-.005-.005s-.003 0-.003-.003l-.002-.002q-.004-.001-.005-.005l-.064-.05a5.3 5.3 0 0 0-.95-.558l-.06-.026c-.004-.003-.036-.015-.054-.022-.017-.008 0 0-.002 0h-.003a5.4 5.4 0 0 0-1.198-.33l-.047-.007h-.002l-.07-.007a5 5 0 0 0-.34-.028 4.9 4.9 0 0 0-1.757.23 5 5 0 0 0-.99.442q-.047.029-.095.056l-.084.052-.054.035q-.026.018-.055.034l-.047.032a4.9 4.9 0 0 0-1.263 1.276l-.037.054-.03.045-.03.044-.02.03a4.7 4.7 0 0 0-.616 1.48q-.01.038-.017.077l-.003.01-.007.034-.005.025-.01.05-.005.024c-.017.094-.034.19-.044.259-.013.094-.027.25-.035.37v.01l-.002.067q-.009.164-.003.333.001.08.005.16l.003.054.007.104v.005l.005.052.012.123.005.035q0 .008.003.014v.018q.004.017.005.034l.005.035.005.032.005.032.007.044.012.065.003.014.002.008q.004.023.01.042.006.025.01.052.027.125.062.251l.005.017.02.072.004.017.025.084.03.094.032.094.005.017.014.042.045.116.024.064.003.01.002.005v.01l.005.012a6 6 0 0 0 .296.578l.003.004.044.072.003.005.007.012.037.057.017.027q.011.02.025.037l.035.05q.022.035.049.071l.047.067q.004.008.01.015t.012.017l.027.037.032.042.003.002.002.003v.002c.03.037.057.072.09.109l.043.054.035.04.015.017.044.05.052.056a12 12 0 0 0 .222.224l.042.04.047.044.002.003.025.022c.101.091.178.158.257.217q.012.01.024.017l.003.003a4 4 0 0 0 .222.155l.067.045.017.012.054.035.02.012q.111.07.227.136.05.031.106.056l.025.013.022.01.034.017.05.025.015.007.005.002.079.038.01.004.088.04q.004 0 .018.007l.007.003a.02.02 0 0 0 .012.005h.003l.01.005.012.005.02.007.017.007q.033.015.066.025l.043.015.059.022.014.005.072.025.089.03.012.004.042.013a4.96 4.96 0 0 0 2.946.005l.008-.003q.098-.03.197-.064.09-.031.178-.067a1 1 0 0 0 .094-.04h.002q.008-.002.02-.01c.227-.103.449-.216.661-.347a6 6 0 0 0 .39-.267l.01-.007.002-.002q.003-.001.005-.005a5.5 5.5 0 0 0 .896-.9l.04-.053a3 3 0 0 0 .155-.222q.207-.311.368-.649l.074-.16c.024-.055 0 0 0-.003l.02-.044.031-.08a5 5 0 0 0 .294-1.105c.003-.012.01-.069.01-.069l.01-.079a5 5 0 0 0 .03-.575c.012-.093.01-.22 0-.345ZM17.91 7.96a.377.377 0 0 1-.523 0l-.7-.7-.953-.953c-.074-.074-.153-.148-.225-.224-.118-.126-.116-.257-.116-.41V3.51c0-.207.17-.36.37-.37s.37.178.37.37v2.147l.129.128 1.646 1.646a.376.376 0 0 1 .002.528Z"/></svg>