<svg xmlns="http://www.w3.org/2000/svg" width="22" height="18" fill="none"><path fill="#fff" d="M21.543 6.832C20.402 4.792 17.076 0 11 0S1.598 4.791.457 6.832A3.6 3.6 0 0 0 0 8.594c0 .616.156 1.224.457 1.761C1.598 12.396 4.924 17.188 11 17.188s9.402-4.79 10.543-6.832c.3-.538.457-1.145.457-1.761a3.6 3.6 0 0 0-.457-1.762ZM11 14.609a6.02 6.02 0 0 1-6.016-6.015A6.02 6.02 0 0 1 11 2.578a6.02 6.02 0 0 1 6.016 6.016A6.02 6.02 0 0 1 11 14.609m3.285-7.028A3.44 3.44 0 0 1 11 12.031a3.44 3.44 0 0 1-3.438-3.437 3.442 3.442 0 0 1 4.45-3.285A1.72 1.72 0 0 0 11 6.875c0 .948.77 1.719 1.719 1.719a1.72 1.72 0 0 0 1.566-1.013"/></svg>