<svg xmlns="http://www.w3.org/2000/svg" width="24" height="24" fill="none"><path fill="#fff" d="M22.305 11.31q-.226 0-.446-.058a.374.374 0 0 1-.207-.589.38.38 0 0 1 .394-.137 1.15 1.15 0 0 0 1.073-.324 2.1 2.1 0 0 0 .335-1.144 2.134 2.134 0 0 0-1.78-2.1 1.19 1.19 0 0 0-.955.55.373.373 0 0 1-.512.135.374.374 0 0 1-.137-.512c.023-.04.546-.921 1.584-.923a2.135 2.135 0 0 0-2.396-1.717 1.2 1.2 0 0 0-.54.977.373.373 0 0 1-.37.38h-.005a.375.375 0 0 1-.375-.37c-.002-.044-.006-1.14.966-1.666a.3.3 0 0 1 .07-.03 2.14 2.14 0 0 0-2.853-.82 1.24 1.24 0 0 0-.12 1.004.374.374 0 0 1-.18.457.376.376 0 0 1-.527-.204c-.015-.045-.373-1.076.375-1.894l.012-.011a2.14 2.14 0 0 0-3.006-.06 1.1 1.1 0 0 0-.16.59q0 .198.057.387a.376.376 0 0 1-.707.253 1.98 1.98 0 0 1 .276-1.774 2.13 2.13 0 0 0-3.06.628 1.27 1.27 0 0 0-.004.91.378.378 0 0 1-.347.52.37.37 0 0 1-.341-.224 2.04 2.04 0 0 1 .013-1.526 2.13 2.13 0 0 0-2.698 1.524h-.002c.024.517.29.673.302.679a.37.37 0 0 1 .04.653.37.37 0 0 1-.203.057.4.4 0 0 1-.16-.033c-.272-.126-.733-.567-.733-1.43l.004-.044a2.137 2.137 0 0 0-2.089 2.004v.008a1.23 1.23 0 0 0 .426.862.375.375 0 0 1-.446.602 1.98 1.98 0 0 1-.717-1.29A2.13 2.13 0 0 0 .874 7.562c-.002.466.151.92.435 1.29l-.004.002c.17.154.385.25.613.274a.377.377 0 0 1 .243.646.37.37 0 0 1-.258.104h-.011a1.83 1.83 0 0 1-1.134-.509.3.3 0 0 1-.077-.106 2.113 2.113 0 0 0-.152 2.95c.174.115.378.177.587.179a.38.38 0 0 1 .393.352.373.373 0 0 1-.345.396 1.8 1.8 0 0 1-.806-.167 2.133 2.133 0 0 0 1.838 2.246 1.98 1.98 0 0 1-.102-1.243.375.375 0 0 1 .724.195c-.137.505.195 1.017.199 1.022l.01.019a2.15 2.15 0 0 0 1.745.907c.211 0 .422-.032.624-.093a1.92 1.92 0 0 1 .04-1.844.376.376 0 1 1 .662.353 1.18 1.18 0 0 0-.034 1.15h.002a3.4 3.4 0 0 0 1.822 1.39 3.47 3.47 0 0 0 1.98.08.4.4 0 0 1-.015-.083c-.101-1.528.758-2.561 2.297-2.766a.376.376 0 0 1 .1.745c-1.384.181-1.673 1.082-1.654 1.85.247.889 1.035 2.473 3.543 2.833a5.55 5.55 0 0 1 2.547 2.22 1.45 1.45 0 0 0 1.254.733 1.44 1.44 0 0 0 1.159-.585 1.48 1.48 0 0 0 .221-1.321l-.812-2.3h-2.527a.375.375 0 1 1 0-.75l3.87.003a2.65 2.65 0 0 0 2.647-2.505 2.6 2.6 0 0 0-.234-1.189h-2.037a.375.375 0 0 1 0-.75h3.293a2.13 2.13 0 0 0 .113-2.54c-.357.346-.83.546-1.328.56m-11.43-.248a1.82 1.82 0 0 0-1.879 1.551.375.375 0 0 1-.742-.101 2.563 2.563 0 0 1 2.621-2.2.375.375 0 0 1 0 .75m1.652-4.528a2.34 2.34 0 0 1-2.458 1.343.5.5 0 0 1-.088-.026c-.49-.218-.928-.244-1.305-.081-.715.308-1.034 1.196-1.037 1.206a.38.38 0 0 1-.417.245c-.748-.127-1.31-.028-1.668.296-.53.479-.492 1.326-.49 1.334a.38.38 0 0 1-.35.399h-.025a.375.375 0 0 1-.375-.35c-.002-.05-.067-1.214.737-1.94.484-.436 1.157-.609 2.003-.519.19-.382.603-1.046 1.318-1.357a2.3 2.3 0 0 1 1.86.058 1.59 1.59 0 0 0 1.616-.926.375.375 0 0 1 .679.318m.874 2.534a.38.38 0 0 1-.437.298.37.37 0 0 1-.302-.43c.084-.497.624-1.436 2.057-1.436a.375.375 0 0 1 0 .75c-1.123 0-1.301.735-1.318.818m4.395 4.54c-.194.642-.983 1.767-2.614 1.767q-.205 0-.409-.023a.375.375 0 0 1 .079-.746c1.78.191 2.209-1.157 2.227-1.215a.374.374 0 1 1 .717.218Zm1.676-3.065a.373.373 0 0 1-.499-.18 1.28 1.28 0 0 0-1.444-.776q-.09.266-.264.486c-.33.397-.812.573-1.28.703-.477.133-.762.249-1 .523-.534.61-.354 1.445-.2 1.89a.375.375 0 1 1-.707.247c-.362-1.033-.24-1.969.343-2.632.397-.454.89-.619 1.363-.75.328-.092.695-.21.903-.46.239-.288.216-.727.115-1.042a.375.375 0 1 1 .714-.229q.078.245.102.5a2.01 2.01 0 0 1 2.034 1.221.375.375 0 0 1-.18.5Z"/></svg>