<svg xmlns="http://www.w3.org/2000/svg" width="468" height="319" fill="none"><circle cx="-7.194" cy="236.982" r="23.11" fill="#EA4701"/><path fill="#fff" d="M2.34 228.556a1.91 1.91 0 0 0-2.726.028l-4.054 4.224-9.891-3.274-2.077 2.077 8.245 5.077-4.172 4.347-2.675-.439-1.877 1.876 3.933 1.378 1.378 3.933 1.877-1.876-.44-2.676 4.348-4.172 5.077 8.245 2.076-2.076-3.273-9.892 4.223-4.053a1.91 1.91 0 0 0 .028-2.727"/><path fill="#494D4D" d="M-17.12 279.833q-1.052 0-1.877-.315a3.9 3.9 0 0 1-1.383-.898 4.2 4.2 0 0 1-.841-1.213l-.275-.639 1.885-.817.202.445q.203.444.534.808t.8.558 1.06.195q.89 0 1.44-.437a1.42 1.42 0 0 0 .55-1.157q0-.655-.599-1.092-.59-.436-2.07-.898-1.797-.573-2.58-1.383-.785-.809-.785-2.03 0-1.415 1.1-2.337t2.839-.922q.922 0 1.642.258a3.5 3.5 0 0 1 1.253.736q.526.478.777.963l.25.485-1.827.801-.154-.275a2.3 2.3 0 0 0-.453-.55 1.9 1.9 0 0 0-.68-.413 2.5 2.5 0 0 0-.881-.145q-.777 0-1.254.356a1.1 1.1 0 0 0-.477.93q0 .534.453.914.453.372 2.135.898 1.796.542 2.621 1.439.825.898.825 2.176 0 1.602-1.173 2.58-1.172.98-3.057.979m8.844 0q-1.472 0-2.289-.833-.81-.841-.809-2.37v-5.443h2.16v5.071q0 .93.428 1.407.429.47 1.23.47.824 0 1.383-.615.566-.623.566-1.521v-4.812h2.16v8.371h-2.047v-2.127l.987.987h-1.035q-.364.614-1.092 1.019-.72.396-1.642.396m6.928-.275v-8.371h2.07v1.512L.48 272.4h.29a3 3 0 0 1 1.173-1.076 3.4 3.4 0 0 1 1.626-.412q1.415 0 2.224.841t.809 2.281v5.524h-2.16v-5.039q0-.882-.429-1.343-.427-.46-1.278-.461-.825 0-1.375.615-.55.607-.55 1.488v4.74h-2.16Z"/><circle cx="69.025" cy="237.982" r="23.11" fill="#EA4701"/><path fill="#fff" d="M78.75 229.556a1.91 1.91 0 0 0-2.726.028l-4.053 4.224-9.892-3.274-2.077 2.077 8.245 5.077-4.171 4.347-2.676-.439-1.877 1.876 3.934 1.378 1.377 3.933 1.877-1.876-.44-2.676 4.348-4.172 5.077 8.245 2.076-2.076-3.273-9.892 4.224-4.053a1.91 1.91 0 0 0 .028-2.727Z"/><path fill="#494D4D" d="M55.383 278.558v-10.024h1.757l3.318 8.281h.042l3.31-8.281h1.73v10.024h-1.267v-6.055l.063-2.065h-.042l-3.276 8.12h-1.106l-3.29-8.127h-.042l.07 2.072v6.055zm15.81.231q-1.688 0-2.759-1.106-1.064-1.106-1.064-2.772 0-1.687 1.078-2.779 1.085-1.1 2.744-1.099 1.659 0 2.744 1.113 1.085 1.106 1.085 2.765c0 1.659-.357 2.03-1.07 2.772q-1.072 1.106-2.759 1.106Zm0-1.162q1.085 0 1.805-.756c.72-.756.721-1.157.721-1.96q0-1.204-.728-1.96-.72-.756-1.799-.756-1.092 0-1.813.756-.714.749-.714 1.96 0 1.204.714 1.96c.714.756 1.08.756 1.813.756Zm5.396.931v-7.294h1.225v1.281l-.19-.231h.232q.336-.553.994-.917a3 3 0 0 1 1.456-.364q1.295 0 1.995.721t.7 2.002v4.802H81.72v-4.564q0-.889-.434-1.358-.427-.47-1.337-.469-.89 0-1.484.637-.595.637-.595 1.561v4.193z"/><circle cx="145.244" cy="239.55" r="23.11" fill="#131515"/><circle cx="157.673" cy="221.785" r="8.48" fill="#3ACE15"/><path stroke="#131515" stroke-linecap="round" stroke-linejoin="round" stroke-width="1.696" d="m153.209 221.098 2.042 3.832 6.887-6.29"/><path fill="#fff" d="M139.541 247.151v-10.075l-1.84 1.321-1.322-1.663 3.994-2.82h1.636v13.237zm8.962.315q-1.155 0-1.997-.379a4.4 4.4 0 0 1-1.396-1.008 4.4 4.4 0 0 1-.822-1.294l-.268-.675 2.135-.813.157.379q.157.37.444.758.295.379.712.619.425.24 1.016.24.953 0 1.535-.6.591-.602.592-1.443 0-.951-.648-1.488-.638-.545-1.589-.545h-1.248v-1.877h1.118q.869 0 1.424-.499.564-.499.564-1.34 0-.777-.509-1.257-.499-.481-1.349-.481-.5 0-.869.185a1.9 1.9 0 0 0-.62.481q-.25.286-.443.628l-.185.342-1.932-1.081.323-.555a4.8 4.8 0 0 1 .897-1.082q.573-.518 1.303-.795.74-.286 1.729-.286 1.858 0 2.967.971 1.11.96 1.109 2.532 0 1.072-.499 1.84a2.7 2.7 0 0 1-1.377 1.1v.065q1.09.37 1.701 1.238.61.87.61 2.089 0 1.738-1.266 2.884-1.258 1.147-3.319 1.147"/><path fill="#494D4D" d="M136.751 280.126v-9.464h1.295v9.464zm-2.968-8.806v-1.218h7.224v1.218zm10.37 9.037q-1.288 0-1.988-.728-.693-.735-.693-2.1v-4.697h1.288v4.487q0 .96.434 1.428.434.47 1.309.469.86 0 1.456-.63.602-.63.602-1.575v-4.179h1.281v7.294h-1.225v-1.624l.588.588h-.63q-.336.553-.987.91a2.9 2.9 0 0 1-1.435.357m8.977 0q-1.638 0-2.674-1.078-1.036-1.084-1.036-2.8 0-1.652 1.008-2.765t2.625-1.113q1.575 0 2.52.959.952.952.952 2.401v.819h-6.37v-1.029h5.068q-.035-.853-.609-1.428-.573-.58-1.561-.581-1.029 0-1.687.735-.657.735-.658 1.995 0 1.296.707 2.016.708.721 1.785.721.483 0 .84-.126.365-.125.665-.35.309-.23.686-.728l.966.609q-.42.7-.875 1.043a3.5 3.5 0 0 1-1.008.518q-.546.183-1.344.182"/><circle cx="221.463" cy="239.556" r="23.11" fill="#131515"/><circle cx="233.567" cy="221.78" r="8.48" fill="#3ACE15"/><path stroke="#131515" stroke-linecap="round" stroke-linejoin="round" stroke-width="1.696" d="m229.103 221.092 2.042 3.832 6.887-6.29"/><path fill="#fff" d="M215.182 247.157v-10.076l-1.839 1.322-1.322-1.664 3.993-2.819h1.636v13.237zm10.506 0v-3.615l.176-.554v-6.933l1.146.906h-1.202l-3.651 5.509h4.539l.656-.055h2.265v2.172h-9.863v-1.914l5.814-8.753h2.607v13.237z"/><path fill="#494D4D" d="m209.484 280.132-2.695-10.024h1.351l1.834 7.259.161.721h.042l.196-.721 2.212-7.259h1.295l2.142 7.259.196.714h.042l.161-.714 1.813-7.259h1.358l-2.674 10.024h-1.274l-2.184-7.301-.21-.777h-.042l-.231.777-2.226 7.301zm14.137.231q-1.638 0-2.674-1.078-1.036-1.085-1.036-2.8 0-1.652 1.008-2.765t2.625-1.113q1.575 0 2.52.959.952.952.952 2.401v.819h-6.37v-1.029h5.068q-.035-.854-.609-1.428-.573-.58-1.561-.581-1.029 0-1.687.735-.657.735-.658 1.995 0 1.294.707 2.016.708.721 1.785.721.483 0 .84-.126.365-.126.665-.35.308-.231.686-.728l.966.609q-.42.7-.875 1.043a3.5 3.5 0 0 1-1.008.518q-.546.182-1.344.182m8.083 0q-1.499 0-2.513-1.078-1.008-1.084-1.008-2.793 0-1.736.994-2.8 1-1.071 2.471-1.071.854 0 1.526.385.679.385 1.015.959h.042v-4.011h1.288v10.178h-1.239v-1.323l.182.28h-.224a2.8 2.8 0 0 1-1.036.917 3.1 3.1 0 0 1-1.498.357m.182-1.113q1.021 0 1.708-.756.693-.756.693-1.995t-.707-1.995q-.7-.763-1.694-.763a2.23 2.23 0 0 0-1.722.763q-.693.756-.693 1.988 0 1.226.686 1.995.685.763 1.729.763"/><circle cx="297.683" cy="239.428" r="23.11" fill="#131515"/><circle cx="310.324" cy="221.907" r="8.48" fill="#3ACE15"/><path stroke="#131515" stroke-linecap="round" stroke-linejoin="round" stroke-width="1.696" d="m305.86 221.219 2.042 3.833 6.887-6.291"/><path fill="#fff" d="M291.401 247.028v-10.076l-1.839 1.322-1.322-1.664 3.993-2.819h1.636v13.237zm9.249.314q-1.201 0-2.07-.37a4.4 4.4 0 0 1-1.47-1.035q-.601-.666-.869-1.359l-.268-.693 2.218-.841.167.416q.175.406.48.813.315.407.74.62.435.212 1.054.212.962 0 1.59-.638.628-.647.628-1.673 0-.98-.619-1.599-.61-.629-1.59-.629-.555 0-1.017.195-.453.185-.915.794l-2.218-.896.85-6.868h7.127v2.2h-5.26l-.434 3.364.064.028a3.3 3.3 0 0 1 1.091-.601 4.2 4.2 0 0 1 1.359-.212q1.738 0 2.875 1.201 1.146 1.192 1.146 3.051 0 1.932-1.294 3.226c-1.294 1.294-1.984 1.294-3.365 1.294"/><path fill="#494D4D" d="M288.704 280.004v-9.464h1.295v9.464zm-2.968-8.806v-1.218h7.224v1.218zm8.655 8.806v-10.178h1.281v3.913h.042q.329-.539.959-.896.636-.364 1.456-.364 1.288 0 1.981.721t.693 1.995v4.809h-1.281v-4.564q0-.91-.448-1.365-.449-.462-1.295-.462a1.96 1.96 0 0 0-1.505.665 2.2 2.2 0 0 0-.602 1.547v4.179zm10.957.231q-1.287 0-1.988-.728-.693-.735-.693-2.1v-4.697h1.288v4.487q0 .959.434 1.428.435.47 1.309.469.862 0 1.456-.63.602-.63.602-1.575v-4.179h1.281v7.294h-1.225v-1.624l.588.588h-.63q-.336.553-.987.91a2.9 2.9 0 0 1-1.435.357"/><circle cx="373.902" cy="239.444" r="23.11" fill="#131515"/><circle cx="386.218" cy="221.891" r="8.48" fill="#3ACE15"/><path stroke="#131515" stroke-linecap="round" stroke-linejoin="round" stroke-width="1.696" d="m381.754 221.204 2.042 3.832 6.887-6.29"/><path fill="#fff" d="M367.62 247.044v-10.075l-1.839 1.322-1.322-1.664 3.993-2.82h1.637v13.237zm9.397.296q-2.107 0-3.439-1.303-1.33-1.304-1.331-3.291 0-1.368.694-2.625a24 24 0 0 1 1.701-2.644l3.004-4.113 1.987 1.368-3.133 4.178q-.426.536-1.544 1.322-1.11.776-1.451 2.523l-1.017-.037q.267-2.015 1.821-3.115a5.8 5.8 0 0 1 3.438-1.109q1.72 0 2.894 1.183 1.173 1.183 1.174 2.995 0 1.987-1.368 3.328-1.359 1.34-3.43 1.34m.037-2.255q1.017 0 1.655-.647.647-.657.647-1.673 0-.98-.647-1.637-.648-.656-1.655-.656c-1.007 0-1.232.219-1.682.656q-.675.656-.675 1.646 0 1.007.666 1.664.665.647 1.691.647"/><path fill="#494D4D" d="M366.863 280.02v-10.024h5.691v1.218h-4.389v8.806zm.707-4.382v-1.211h4.655v1.211zm6.622 4.382v-7.294h1.211v1.288l-.161-.14h.203q.217-.588.805-.98.588-.399 1.253-.399.203 0 .427.035t.406.105l.189.07-.14 1.267-.203-.07a2 2 0 0 0-.42-.112 2 2 0 0 0-.364-.042q-.805 0-1.365.63-.56.623-.56 1.631v4.011zm5.655 0v-7.294h1.288v7.294zm.651-8.778a.84.84 0 0 1-.609-.252.84.84 0 0 1-.252-.602q0-.364.252-.602a.87.87 0 0 1 .609-.238q.37 0 .609.238a.82.82 0 0 1 .238.602q0 .343-.238.602a.8.8 0 0 1-.609.252"/><circle cx="450.121" cy="237.982" r="23.11" fill="#D8D8D8"/><path fill="#838383" d="M444.995 245.583v-10.076l-1.839 1.322-1.322-1.664 3.993-2.82h1.636v13.238zm4.941-.823 5.537-10.15-.018-.065h-6.036v-2.2h8.652v2.256l-.12.231-5.787 11.111z"/><path fill="#494D4D" d="M443.643 278.789q-.91 0-1.61-.273a3.1 3.1 0 0 1-1.162-.77 3.6 3.6 0 0 1-.679-1.05l-.224-.553 1.197-.497.196.455q.195.449.511.798.321.35.777.532.462.175 1.057.175.945 0 1.498-.476.56-.483.56-1.232 0-.68-.448-1.12-.441-.44-1.925-.889-1.708-.518-2.352-1.204-.637-.693-.637-1.708 0-1.155.875-1.911.882-.763 2.275-.763.77 0 1.358.21.594.21 1.022.609a3 3 0 0 1 .637.812l.21.413-1.169.511-.147-.273a2.2 2.2 0 0 0-.427-.539 1.8 1.8 0 0 0-.651-.406 2.4 2.4 0 0 0-.854-.14q-.834 0-1.337.392a1.22 1.22 0 0 0-.504 1.015q0 .588.441.98t1.974.875q1.547.476 2.24 1.211.7.735.7 1.855 0 1.337-.945 2.149t-2.457.812m7.279 0q-1.197 0-1.96-.672-.763-.68-.763-1.813c0-1.133.28-1.356.84-1.799q.848-.672 2.184-.672.637 0 1.204.147.567.14.945.371v-.462q0-.805-.553-1.26-.546-.462-1.407-.462-.455 0-.784.105t-.56.259a3.5 3.5 0 0 0-.476.371l-.238.217-.854-.77.287-.28q.294-.28.672-.518.385-.245.847-.378.462-.14 1.169-.14 1.42 0 2.282.763.861.763.861 2.093v4.669h-1.225v-1.575l.343.56h-.385q-.329.525-.973.889-.637.357-1.456.357m.203-1.092q.931 0 1.589-.658.665-.664.665-1.575v-.028a2.5 2.5 0 0 0-.868-.441 3.6 3.6 0 0 0-1.071-.161q-.896 0-1.414.378c-.518.378-.518.614-.518 1.085q0 .637.441 1.022.448.378 1.176.378m7.872 1.092q-.903 0-1.449-.546-.539-.546-.539-1.484v-7.455h1.281v7.224q0 .546.224.819.231.273.707.273.126 0 .287-.035.168-.034.392-.126l.231-.091.182 1.099-.231.098q-.231.098-.497.161a2.5 2.5 0 0 1-.588.063m-3.269-6.37v-1.155h4.431v1.155z"/><path fill="#131515" d="M131.418 143.228v-2.511l4.513-4.594q1.016-1.017 1.433-1.738.417-.732.417-1.382 0-.753-.458-1.2-.446-.457-1.25-.457-.487 0-.843.173a2.3 2.3 0 0 0-.651.477 4 4 0 0 0-.549.732l-.244.417-2.592-1.281.397-.793a5.1 5.1 0 0 1 1.047-1.412 4.8 4.8 0 0 1 1.535-.976q.884-.366 2.144-.366 2.043 0 3.375 1.189 1.33 1.18 1.331 3.161 0 1.108-.569 2.246-.57 1.129-1.84 2.348l-3.1 3.09.031.071h5.732v2.806zm16.697.355q-2.317 0-3.802-1.219-1.473-1.22-1.473-3.111 0-1.24.63-2.185.64-.956 1.768-1.433v-.071a3.9 3.9 0 0 1-1.341-1.25q-.519-.783-.519-1.85 0-1.83 1.332-2.978 1.33-1.16 3.405-1.159 2.083 0 3.405 1.159 1.33 1.148 1.331 2.978 0 1.067-.539 1.88a3.6 3.6 0 0 1-1.331 1.22v.071q1.128.477 1.769 1.433.65.956.65 2.196 0 1.89-1.474 3.11-1.474 1.209-3.811 1.209m0-2.653q.945 0 1.555-.569.62-.569.62-1.463t-.61-1.484q-.61-.6-1.565-.6-.925 0-1.545.579-.62.57-.62 1.474 0 .894.61 1.484.62.579 1.555.579m0-6.342q.802 0 1.321-.508.518-.519.518-1.321 0-.783-.518-1.281-.519-.508-1.321-.508-.803 0-1.322.508-.507.498-.508 1.281 0 .802.508 1.321.519.508 1.322.508m11.974 8.64v-14.555h5.112q3.334 0 5.377 2.002 2.043 1.992 2.043 5.265 0 3.293-2.043 5.295-2.043 1.993-5.377 1.993zm3.212-2.877h1.717q2.002.02 3.172-1.138 1.179-1.16 1.179-3.253 0-2.063-1.179-3.191-1.17-1.128-3.172-1.128h-1.717zm14.323 3.232q-1.708 0-2.734-.925-1.026-.935-1.027-2.449 0-1.626 1.24-2.562t3.233-.935q.792 0 1.494.153.7.152 1.209.396v-.61q0-.894-.61-1.402-.609-.519-1.677-.519-.64 0-1.087.133a4.5 4.5 0 0 0-.874.365q-.417.225-.722.498l-.305.265-1.565-1.667.538-.427a7.5 7.5 0 0 1 1.19-.773 6.2 6.2 0 0 1 1.443-.518 7.8 7.8 0 0 1 1.728-.183q2.388 0 3.689 1.108 1.302 1.098 1.301 3.141v6.556h-3.039v-2.206l.712.925h-.783q-.447.7-1.341 1.169-.885.467-2.013.467m.966-2.053q1.077 0 1.758-.762.691-.762.691-2.043a3.7 3.7 0 0 0-.925-.356 4.6 4.6 0 0 0-1.128-.132q-.975 0-1.596.427-.61.426-.61 1.291 0 .752.498 1.169.5.406 1.312.406m7.949 6.109 2.673-5.763.021 1.362-4.554-10.459h3.273l2.206 5.56.315 1.026h.071l.335-1.037 2.104-5.549h3.172l-6.302 14.86q.01 0 0 0zm20.079-4.056q-1.342 0-2.389-.406a5 5 0 0 1-1.748-1.149 5.4 5.4 0 0 1-1.077-1.545l-.356-.823 2.744-1.128.224.518q.233.509.62.935.386.427.925.661.549.234 1.209.234.966 0 1.576-.478.62-.478.62-1.271 0-.752-.813-1.25t-2.501-1.047q-2.053-.681-3.079-1.707-1.017-1.037-1.017-2.612 0-1.81 1.433-2.999 1.434-1.199 3.7-1.199 1.19 0 2.124.335a4.7 4.7 0 0 1 1.627.966q.68.63.986 1.25l.304.62-2.663 1.088-.172-.315a2.5 2.5 0 0 0-.519-.631 2.3 2.3 0 0 0-.803-.477 2.8 2.8 0 0 0-1.016-.173q-.834 0-1.352.386-.518.376-.518.996 0 .6.528 1.017.53.406 2.521 1.026 2.267.681 3.313 1.86 1.057 1.169 1.057 2.765 0 2.043-1.534 3.303-1.535 1.25-3.954 1.25m11.622 0q-1.697 0-2.652-.894-.946-.894-.946-2.683v-10.073h3.161v9.646q0 .752.316 1.128.315.366.935.366.203 0 .406-.041.213-.04.529-.142l.315-.102v2.45l-.407.112a7 7 0 0 1-.772.172 5.6 5.6 0 0 1-.885.061m-5.163-8.405v-2.399h7.217v2.399zm9.241 8.05v-10.449h3.039v1.992l-.326-.396h.387q.294-.864 1.097-1.403a3.05 3.05 0 0 1 2.308-.498q.294.05.538.142l.254.082v2.947l-.325-.122a4 4 0 0 0-.701-.213 3.4 3.4 0 0 0-.722-.082q-1.047 0-1.718.742-.66.742-.66 1.932v5.326zm13.335.355q-2.49 0-4.005-1.575t-1.514-4.005q0-2.418 1.524-3.994 1.525-1.586 3.944-1.586 2.286 0 3.76 1.433 1.484 1.424 1.484 3.659v1.098h-9.188v-1.596h6.261q-.071-.945-.691-1.534-.61-.6-1.626-.6-1.119 0-1.789.803-.67.792-.671 2.216 0 1.524.783 2.419.792.884 2.083.884.59 0 1.037-.163.447-.162.803-.427.366-.264.854-.864l1.86 1.434q-.721.964-1.413 1.443a5.3 5.3 0 0 1-1.494.711q-.803.244-2.002.244m10.082 0q-1.708 0-2.734-.925-1.027-.935-1.027-2.449 0-1.626 1.24-2.562t3.232-.935q.793 0 1.495.153.7.152 1.209.396v-.61q0-.894-.61-1.402-.609-.519-1.677-.519-.64 0-1.087.133-.448.132-.874.365-.417.225-.722.498l-.305.265-1.565-1.667.538-.427a7.5 7.5 0 0 1 1.19-.773 6.2 6.2 0 0 1 1.443-.518 7.8 7.8 0 0 1 1.728-.183q2.388 0 3.689 1.108 1.301 1.098 1.301 3.141v6.556h-3.039v-2.206l.712.925h-.783q-.447.7-1.342 1.169-.884.467-2.012.467m.966-2.053q1.077 0 1.758-.762.691-.762.691-2.043a3.7 3.7 0 0 0-.925-.356 4.6 4.6 0 0 0-1.128-.132q-.976 0-1.596.427-.61.426-.61 1.291 0 .752.498 1.169.498.406 1.312.406m9.929-.091v-3.629l4.757-5.031h3.964zm-2.093 1.789v-14.555h3.171v14.555zm7.084 0-3.009-5.093 2.206-2.185 4.594 7.278zm8.315 0 5.58-14.555h2.896l5.581 14.555h-3.517l-2.968-8.752-.549-1.799h-.071l-.539 1.789-2.988 8.762zm2.693-2.826.854-2.338h6.627l.904 2.338zm17.18 3.181q-2.439 0-4.015-1.565-1.565-1.576-1.565-4.015 0-2.47 1.565-4.025 1.566-1.555 4.025-1.555 1.139 0 2.054.315.925.315 1.666.986.743.67 1.271 1.911l-2.633 1.006q-.304-.63-.609-.945a1.9 1.9 0 0 0-.722-.468 2.7 2.7 0 0 0-.935-.152q-1.078 0-1.84.813-.762.803-.762 2.094 0 1.3.752 2.124.752.813 1.84.813.498 0 .935-.162.447-.173.742-.458.305-.284.65-.955l2.663.823q-.528 1.321-1.23 2.002a5 5 0 0 1-1.667 1.047q-.965.366-2.185.366m11.034 0q-1.698 0-2.653-.894-.945-.894-.945-2.683v-10.073h3.161v9.646q0 .752.315 1.128.315.366.935.366.204 0 .407-.041.213-.04.528-.142l.315-.102v2.45l-.406.112a5.6 5.6 0 0 1-1.657.233m-5.163-8.405v-2.399h7.216v2.399zm9.311 8.05v-10.449h3.182v10.449zm1.586-12.075q-.752 0-1.271-.509a1.73 1.73 0 0 1-.518-1.27q0-.762.518-1.26a1.75 1.75 0 0 1 1.271-.509q.772 0 1.281.509.507.498.508 1.26 0 .752-.508 1.27-.509.509-1.281.509m7.037 12.075-4.167-10.449h3.252l2.246 6.271.295.966h.071l.305-.966 2.247-6.271h3.191l-4.279 10.449zm12.939.355q-2.49 0-4.004-1.575-1.515-1.575-1.515-4.005 0-2.418 1.525-3.994 1.525-1.586 3.943-1.586 2.287 0 3.761 1.433 1.484 1.424 1.484 3.659v1.098h-9.188v-1.596h6.261q-.072-.945-.691-1.534-.61-.6-1.627-.6-1.117 0-1.789.803-.67.792-.67 2.216 0 1.524.782 2.419.793.884 2.084.884.589 0 1.037-.163a3.1 3.1 0 0 0 .803-.427q.365-.264.853-.864l1.86 1.434q-.722.964-1.412 1.443a5.3 5.3 0 0 1-1.495.711q-.802.244-2.002.244"/><path fill="#494D4D" d="M70.393 173.521v-9.703h3.72q1.294 0 2.1.718.807.712.807 1.789 0 .806-.393 1.348a2.3 2.3 0 0 1-1.037.786v.048q.806.203 1.314.813.51.61.509 1.477 0 1.165-.834 1.945-.833.779-2.182.779zm1.565-1.355h2.277q.684 0 1.138-.414.46-.42.46-1.063 0-.65-.467-1.078-.467-.433-1.2-.433h-2.682v-1.254h2.466q.678 0 1.105-.386.433-.387.433-1.003 0-.624-.433-.989-.427-.366-1.085-.366h-2.012zm9.592 1.585q-1.254 0-1.931-.704-.678-.705-.678-1.999v-4.615h1.545v4.337q0 .861.393 1.281.392.413 1.166.413.765 0 1.294-.556.529-.555.529-1.396v-4.079h1.544v7.088h-1.47v-1.694l.705.705H83.9q-.325.528-.948.874-.617.345-1.403.345Zm5.858-.23v-7.088h1.545v7.088zm.779-8.423a.92.92 0 0 1-.678-.284.93.93 0 0 1-.284-.678.88.88 0 0 1 .284-.671.95.95 0 0 1 .678-.271.9.9 0 0 1 .678.271.9.9 0 0 1 .27.671.95.95 0 0 1-.27.678.88.88 0 0 1-.678.284m2.766 8.423v-9.866h1.545v9.866zm6.462.23q-1.464 0-2.44-1.043-.975-1.044-.975-2.717 0-1.701.969-2.738.97-1.037 2.405-1.037.814 0 1.45.36.637.351.95.887h.046v-3.808h1.539v9.866h-1.498v-1.247l.21.278h-.25q-.346.528-.976.867-.63.333-1.43.332m.298-1.307q.936 0 1.545-.671.617-.678.617-1.782t-.63-1.782a2 2 0 0 0-1.532-.678q-.942 0-1.558.678-.61.677-.61 1.775 0 1.09.61 1.775t1.558.685m8.923 1.077v-9.866h1.538v3.774h.048q.324-.535.941-.881.618-.345 1.423-.345 1.22 0 1.898.698t.677 1.911v4.709h-1.545v-4.371q0-.812-.399-1.226-.4-.413-1.159-.413-.807 0-1.342.582a1.95 1.95 0 0 0-.535 1.376v4.052zm11.752.23q-1.687 0-2.752-1.07-1.056-1.071-1.057-2.697 0-1.653 1.071-2.717t2.738-1.064q1.666 0 2.737 1.077 1.077 1.078 1.077 2.704 0 1.613-1.063 2.69-1.057 1.077-2.751 1.077m0-1.355q.982 0 1.619-.671.644-.677.644-1.748 0-1.064-.644-1.741-.644-.678-1.619-.678-.99 0-1.627.678-.637.67-.637 1.741 0 1.077.637 1.748.637.672 1.627.671m5.294 1.125v-7.088h1.477v1.261l-.19-.244h.238q.338-.556.989-.902.651-.345 1.416-.345 1.233 0 1.911.698.684.692.684 1.911v4.709h-1.545v-4.371q0-.792-.386-1.212-.386-.421-1.192-.421-.8 0-1.329.563-.528.555-.528 1.375v4.066zm11.643.23q-1.647 0-2.676-1.05-1.024-1.058-1.024-2.724 0-1.599.996-2.683 1.004-1.09 2.643-1.091 1.545 0 2.494.942.955.942.955 2.371v.82h-6.254V169.3h4.763v-.007a1.87 1.87 0 0 0-.562-1.281q-.515-.522-1.396-.522-.935 0-1.525.664-.59.658-.589 1.81 0 1.192.644 1.849.643.651 1.639.651.441 0 .78-.108.338-.115.623-.312.285-.204.651-.651l1.023.746q-.427.644-.881.962a3.6 3.6 0 0 1-.989.481q-.535.17-1.315.169m7.394 0q-.732 0-1.274-.183a3 3 0 0 1-.956-.521 2.8 2.8 0 0 1-.63-.712l-.224-.372 1.119-.678.176.278q.183.278.44.501.264.224.603.339.346.115.793.115.624 0 .996-.244a.77.77 0 0 0 .373-.684.72.72 0 0 0-.339-.63q-.34-.231-1.328-.461-1.39-.332-1.958-.861-.57-.529-.57-1.375 0-.915.773-1.484.779-.576 1.951-.576.597 0 1.071.129a2.7 2.7 0 0 1 .854.393q.386.257.603.549l.223.284-1.07.705-.17-.19a1.7 1.7 0 0 0-.894-.562 2.4 2.4 0 0 0-.63-.075q-.57 0-.915.231-.346.23-.346.562 0 .311.265.542.27.223 1.477.529 1.334.332 1.904.86.569.529.569 1.342 0 1.01-.813 1.633-.807.616-2.073.616m6.945 0q-.963 0-1.525-.548-.562-.549-.562-1.566v-7.087h1.538v6.87q0 .509.217.759t.664.251q.135 0 .291-.034.162-.033.38-.122l.223-.088.197 1.22-.244.108a3.5 3.5 0 0 1-.529.17 2.8 2.8 0 0 1-.65.067m-3.293-6.03v-1.288h4.546v1.288zm11.964 6.03q-.732 0-1.274-.183a3 3 0 0 1-.955-.521 2.8 2.8 0 0 1-.63-.712l-.224-.372 1.118-.678.176.278q.183.278.441.501.264.224.603.339.345.115.793.115.623 0 .996-.244a.77.77 0 0 0 .372-.684.72.72 0 0 0-.338-.63q-.339-.231-1.329-.461-1.388-.332-1.958-.861-.569-.529-.569-1.375 0-.915.772-1.484.78-.576 1.952-.576.596 0 1.071.129.474.128.853.393.387.257.603.549l.224.284-1.071.705-.169-.19a1.7 1.7 0 0 0-.894-.562 2.4 2.4 0 0 0-.631-.075q-.569 0-.914.231-.346.23-.346.562a.7.7 0 0 0 .264.542q.271.223 1.477.529 1.335.332 1.905.86.569.529.569 1.342 0 1.01-.813 1.633-.807.616-2.074.616m6.945 0q-.962 0-1.524-.548-.563-.549-.563-1.566v-7.087h1.538v6.87q0 .509.217.759t.664.251q.136 0 .292-.034.163-.033.379-.122l.224-.088.196 1.22-.244.108a2.8 2.8 0 0 1-1.179.237m-3.293-6.03v-1.288h4.547v1.288zm6.136 5.8v-7.088h1.464v1.267l-.17-.162h.217q.21-.583.766-.956.555-.38 1.199-.379.21 0 .427.041.224.033.407.108l.189.075-.169 1.456-.197-.074a2 2 0 0 0-.413-.122 2 2 0 0 0-.393-.048q-.752 0-1.267.57-.515.569-.515 1.545v3.767zm8.639.23q-1.647 0-2.677-1.05-1.023-1.058-1.023-2.724 0-1.599.996-2.683 1.004-1.09 2.643-1.091 1.545 0 2.494.942.955.942.955 2.371v.82h-6.254V169.3h4.763v-.007a1.87 1.87 0 0 0-.562-1.281q-.515-.522-1.396-.522-.935 0-1.525.664-.59.658-.589 1.81 0 1.192.644 1.849.643.651 1.639.651.441 0 .78-.108.339-.115.623-.312.285-.204.651-.651l1.023.746q-.427.644-.881.962a3.6 3.6 0 0 1-.989.481q-.535.17-1.315.169m7.055 0q-1.159 0-1.898-.643-.73-.651-.731-1.749 0-1.11.82-1.755.826-.65 2.141-.65.61 0 1.138.135.529.136.901.353v-.434q0-.738-.501-1.138-.495-.407-1.288-.407a2.7 2.7 0 0 0-.752.095 2.6 2.6 0 0 0-.555.237 3.4 3.4 0 0 0-.481.339l-.244.203-.874-.894.304-.264a4.2 4.2 0 0 1 .712-.495 3.4 3.4 0 0 1 .874-.352 4.5 4.5 0 0 1 1.145-.129q1.45 0 2.304.745.861.746.861 2.06v4.513h-1.471v-1.47l.339.528h-.386q-.32.495-.942.834-.616.338-1.416.338m.359-1.172a1.93 1.93 0 0 0 1.436-.596q.59-.597.59-1.443v-.028a2.4 2.4 0 0 0-.793-.399 3.3 3.3 0 0 0-.969-.143q-.8 0-1.267.346-.46.345-.461.982 0 .597.4.942.4.339 1.064.339m6.295-.644v-1.883l3.503-3.619h1.945zm-.921 1.586v-9.866h1.545v9.866zm4.783 0-2.5-3.781 1.057-1.091 3.293 4.872zm5.333.23q-.731 0-1.274-.183a3 3 0 0 1-.955-.521 2.8 2.8 0 0 1-.63-.712l-.224-.372 1.118-.678.176.278q.183.278.441.501.264.224.603.339a2.5 2.5 0 0 0 .793.115q.623 0 .996-.244a.77.77 0 0 0 .372-.684.72.72 0 0 0-.338-.63q-.34-.231-1.328-.461-1.39-.332-1.959-.861t-.569-1.375q0-.915.773-1.484.779-.576 1.951-.576.596 0 1.071.129.474.128.853.393.387.257.603.549l.224.284-1.071.705-.169-.19a1.7 1.7 0 0 0-.894-.562 2.4 2.4 0 0 0-.631-.075q-.569 0-.914.231-.346.23-.346.562a.7.7 0 0 0 .264.542q.271.223 1.478.529 1.334.332 1.904.86.569.529.569 1.342 0 1.01-.813 1.633-.807.616-2.074.616m10.28 0q-.962 0-1.524-.548-.563-.549-.563-1.566v-7.087h1.539v6.87q0 .509.216.759.217.25.664.251.136 0 .292-.034.163-.033.379-.122l.224-.088.196 1.22-.244.108a2.8 2.8 0 0 1-1.179.237m-3.293-6.03v-1.288h4.547v1.288zm6.136 5.8v-9.866h1.538v3.774h.048a2.5 2.5 0 0 1 .942-.881q.616-.345 1.423-.345 1.22 0 1.897.698.678.698.678 1.911v4.709h-1.545v-4.371q0-.812-.4-1.226t-1.159-.413q-.806 0-1.341.582a1.95 1.95 0 0 0-.536 1.376v4.052zm10.546.23q-1.159 0-1.898-.643-.731-.651-.731-1.749 0-1.11.819-1.755.827-.65 2.142-.65.61 0 1.138.135.529.136.901.353v-.434q0-.738-.501-1.138-.495-.407-1.288-.407a2.7 2.7 0 0 0-.752.095 2.6 2.6 0 0 0-.555.237 3.4 3.4 0 0 0-.481.339l-.244.203-.875-.894.305-.264a4.2 4.2 0 0 1 .712-.495 3.4 3.4 0 0 1 .874-.352 4.5 4.5 0 0 1 1.145-.129q1.45 0 2.304.745.861.746.861 2.06v4.513h-1.471v-1.47l.339.528h-.386q-.32.495-.942.834-.617.338-1.416.338m.359-1.172a1.93 1.93 0 0 0 1.436-.596q.59-.597.59-1.443v-.028a2.4 2.4 0 0 0-.793-.399 3.3 3.3 0 0 0-.969-.143q-.8 0-1.267.346-.46.345-.461.982 0 .597.4.942.4.339 1.064.339m7.864 1.172q-.962 0-1.524-.548-.563-.549-.563-1.566v-7.087h1.538v6.87q0 .509.217.759t.664.251q.136 0 .292-.034a2 2 0 0 0 .379-.122l.224-.088.196 1.22-.244.108a2.8 2.8 0 0 1-1.179.237m-3.293-6.03v-1.288h4.547v1.288zm9.471 5.8v-7.088h1.464v1.267l-.17-.162h.217q.21-.583.766-.956.555-.38 1.199-.379.21 0 .427.041.224.033.407.108l.189.075-.169 1.456-.197-.074a2 2 0 0 0-.413-.122 2 2 0 0 0-.393-.048q-.752 0-1.267.57-.515.569-.515 1.545v3.767zm8.639.23q-1.647 0-2.677-1.05-1.023-1.058-1.023-2.724 0-1.599.996-2.683 1.004-1.09 2.643-1.091 1.545 0 2.494.942.955.942.955 2.371v.82h-6.254V169.3h4.763v-.007a1.87 1.87 0 0 0-.562-1.281q-.515-.522-1.396-.522-.935 0-1.525.664-.59.658-.589 1.81 0 1.192.644 1.849.643.651 1.639.651.441 0 .78-.108.339-.115.623-.312.285-.204.651-.651l1.023.746q-.427.644-.881.962a3.6 3.6 0 0 1-.989.481q-.535.17-1.315.169m5.537-.23v-7.576q0-1.05.698-1.666.697-.624 1.809-.624h2.927v1.24h-2.717q-.515 0-.847.298-.325.299-.325.854v7.474zm-1.267-5.8v-1.288h2.039v1.288zm2.019 0v-1.288h2.527v1.288zm3.91 5.8v-9.866h1.545v9.866zm6.741.23q-1.647 0-2.676-1.05-1.024-1.058-1.024-2.724 0-1.599.996-2.683 1.004-1.09 2.643-1.091 1.545 0 2.494.942.955.942.955 2.371v.82h-6.254V169.3h4.763v-.007a1.87 1.87 0 0 0-.562-1.281q-.515-.522-1.396-.522-.935 0-1.525.664-.59.658-.589 1.81 0 1.192.644 1.849.643.651 1.639.651.441 0 .78-.108.339-.115.623-.312.285-.204.651-.651l1.023.746q-.427.644-.881.962a3.6 3.6 0 0 1-.989.481q-.535.17-1.315.169m8.173 0q-1.653 0-2.69-1.07-1.03-1.071-1.03-2.717 0-1.641 1.03-2.697 1.036-1.064 2.71-1.064.624 0 1.138.156.522.156.963.488.44.324.874.969l-1.145.765q-.305-.42-.563-.623a1.6 1.6 0 0 0-.569-.305 2.5 2.5 0 0 0-.711-.095q-.922 0-1.552.664t-.63 1.742q0 1.077.63 1.755t1.545.677q.406 0 .745-.108.346-.116.596-.312.258-.203.59-.671l1.199.698q-.453.712-.894 1.057a3.2 3.2 0 0 1-1.01.515 4.1 4.1 0 0 1-1.226.176m7.079 0q-.963 0-1.525-.548-.562-.549-.562-1.566v-7.087h1.538v6.87q0 .509.217.759.216.25.664.251.135 0 .291-.034a2 2 0 0 0 .38-.122l.223-.088.197 1.22-.244.108a3.5 3.5 0 0 1-.529.17 2.8 2.8 0 0 1-.65.067m-3.293-6.03v-1.288h4.546v1.288zm9.471 5.8v-7.088h1.463v1.267l-.169-.162h.217q.21-.583.766-.956.555-.38 1.199-.379.21 0 .427.041.223.033.406.108l.19.075-.169 1.456-.197-.074a2 2 0 0 0-.413-.122 2 2 0 0 0-.393-.048q-.753 0-1.267.57-.516.569-.515 1.545v3.767zm8.639.23q-1.647 0-2.677-1.05-1.023-1.058-1.023-2.724 0-1.599.996-2.683 1.003-1.09 2.643-1.091 1.545 0 2.493.942.956.942.956 2.371v.82h-6.255V169.3h4.764v-.007a1.88 1.88 0 0 0-.562-1.281q-.516-.522-1.396-.522-.936 0-1.525.664-.59.658-.589 1.81 0 1.192.643 1.849.644.651 1.64.651.44 0 .779-.108.339-.115.624-.312.284-.204.65-.651l1.023.746q-.426.644-.88.962a3.6 3.6 0 0 1-.99.481q-.536.17-1.314.169m7.054 0q-1.159 0-1.897-.643-.732-.651-.732-1.749 0-1.11.82-1.755.827-.65 2.141-.65.61 0 1.139.135.528.136.901.353v-.434q0-.738-.501-1.138-.495-.407-1.288-.407-.434 0-.752.095a2.6 2.6 0 0 0-.556.237 3.5 3.5 0 0 0-.481.339l-.244.203-.874-.894.305-.264a4.2 4.2 0 0 1 .712-.495q.399-.23.874-.352.48-.129 1.145-.129 1.45 0 2.304.745.86.746.86 2.06v4.513h-1.47v-1.47l.339.528h-.387q-.318.495-.941.834-.618.338-1.417.338m.359-1.172q.854 0 1.437-.596.59-.597.589-1.443v-.028a2.4 2.4 0 0 0-.792-.399 3.3 3.3 0 0 0-.969-.143q-.8 0-1.267.346-.462.345-.461.982 0 .597.4.942.4.339 1.063.339m5.374.942v-9.866h1.545v9.866zm10.102.23q-1.653 0-2.69-1.07-1.03-1.071-1.03-2.717 0-1.641 1.03-2.697 1.037-1.064 2.71-1.064.623 0 1.139.156.522.156.962.488.44.324.874.969l-1.145.765q-.305-.42-.563-.623a1.6 1.6 0 0 0-.569-.305 2.5 2.5 0 0 0-.711-.095q-.922 0-1.552.664t-.63 1.742q0 1.077.63 1.755t1.545.677q.407 0 .745-.108.346-.116.597-.312.257-.203.589-.671l1.2.698q-.454.712-.895 1.057-.44.34-1.009.515-.57.176-1.227.176m7.791 0q-1.687 0-2.751-1.07-1.058-1.071-1.058-2.697 0-1.653 1.071-2.717t2.738-1.064 2.737 1.077q1.077 1.078 1.077 2.704 0 1.613-1.063 2.69-1.058 1.077-2.751 1.077m0-1.355q.982 0 1.619-.671.644-.677.644-1.748 0-1.064-.644-1.741-.644-.678-1.619-.678-.99 0-1.627.678-.636.67-.637 1.741 0 1.077.637 1.748.637.672 1.627.671m5.294 1.125v-7.088h1.477v1.193l-.129-.183h.17q.326-.542.948-.888a2.74 2.74 0 0 1 1.356-.352q.805 0 1.389.359.582.359.826 1.03a2.7 2.7 0 0 1 1.03-1.023 2.95 2.95 0 0 1 1.457-.366q1.22 0 1.857.698.644.698.644 1.951v4.669h-1.539v-4.357q0-.834-.372-1.24-.373-.407-1.105-.407-.718 0-1.226.556-.502.555-.502 1.403v4.045h-1.538v-4.357q0-.84-.379-1.24-.38-.407-1.098-.407t-1.22.57a2 2 0 0 0-.501 1.368v4.066zm12.89 0v-7.088h1.477v1.193l-.128-.183h.169a2.5 2.5 0 0 1 .949-.888 2.73 2.73 0 0 1 1.355-.352q.807 0 1.389.359.583.359.827 1.03a2.7 2.7 0 0 1 1.03-1.023 2.94 2.94 0 0 1 1.456-.366q1.22 0 1.857.698.644.698.644 1.951v4.669h-1.538v-4.357q0-.834-.373-1.24c-.373-.406-.617-.407-1.104-.407q-.718 0-1.227.556-.501.555-.501 1.403v4.045h-1.539v-4.357q0-.84-.379-1.24-.38-.407-1.098-.407t-1.219.57a2 2 0 0 0-.502 1.368v4.066zm12.945 0v-7.088h1.545v7.088zm.779-8.423a.93.93 0 0 1-.678-.284.93.93 0 0 1-.284-.678.88.88 0 0 1 .284-.671.95.95 0 0 1 .678-.271.9.9 0 0 1 .678.271q.27.265.271.671a.95.95 0 0 1-.271.678.88.88 0 0 1-.678.284m5.416 8.653q-.963 0-1.525-.548-.562-.549-.562-1.566v-7.087h1.538v6.87q0 .509.217.759.216.25.664.251.135 0 .291-.034a2 2 0 0 0 .38-.122l.223-.088.197 1.22-.244.108a3.5 3.5 0 0 1-.529.17 2.8 2.8 0 0 1-.65.067m-3.293-6.03v-1.288h4.546v1.288zm6.136 5.8v-7.088h1.477v1.193l-.129-.183h.169q.326-.542.949-.888a2.73 2.73 0 0 1 1.355-.352q.807 0 1.389.359.583.359.827 1.03a2.7 2.7 0 0 1 1.03-1.023 2.94 2.94 0 0 1 1.457-.366q1.22 0 1.856.698.644.698.644 1.951v4.669h-1.538v-4.357q0-.834-.373-1.24-.372-.407-1.104-.407-.718 0-1.227.556-.501.555-.501 1.403v4.045h-1.538v-4.357q0-.84-.38-1.24-.379-.407-1.097-.407c-.718 0-.886.19-1.22.57a2 2 0 0 0-.501 1.368v4.066zm16.142.23q-1.645 0-2.676-1.05-1.023-1.058-1.023-2.724 0-1.599.996-2.683 1.002-1.09 2.642-1.091 1.545 0 2.494.942.955.942.955 2.371v.82h-6.254V169.3h4.764v-.007a1.87 1.87 0 0 0-.563-1.281q-.514-.522-1.396-.522-.934 0-1.524.664-.59.658-.59 1.81 0 1.192.644 1.849.644.651 1.64.651.44 0 .779-.108.34-.115.623-.312.285-.204.651-.651l1.023.746q-.426.644-.881.962a3.6 3.6 0 0 1-.989.481q-.535.17-1.315.169m4.9-.23v-7.088h1.478v1.261l-.19-.244h.237q.34-.556.989-.902.651-.345 1.416-.345 1.234 0 1.911.698.685.692.685 1.911v4.709h-1.545v-4.371q0-.792-.387-1.212-.386-.421-1.192-.421-.8 0-1.328.563-.53.555-.529 1.375v4.066zm11.04.23q-.962 0-1.524-.548-.563-.549-.563-1.566v-7.087h1.539v6.87q0 .509.216.759.217.25.664.251.136 0 .292-.034.163-.033.379-.122l.224-.088.196 1.22-.244.108a2.8 2.8 0 0 1-1.179.237m-3.293-6.03v-1.288h4.547v1.288z"/><path fill="url(#a)" d="M254.099 28.285c1.821 2.034 2.96 4.93 2.96 8.146 0 6.155-4.171 11.145-9.315 11.145-5.145 0-9.788-5.008-9.316-11.145 1.165-15.138 1.497-24.62-18.132-36.431 5.656 3.993 19.13 11.977 5.989 31.274-2.969 4.358-4.326 8.15-3.427 15.564-5.03-10.176-2.233-24.906 1.583-30.963-4.838 6.224-10.684 12.468-15.162 20.824s-7.587 18.825-6.948 33.5c.07 1.62.243 3.161.494 4.64 2.187 15.155 15.222 26.801 30.983 26.801 17.292 0 31.244-14.018 31.31-31.31.081-21.033-3.041-35.33-11.019-42.045"/><path fill="url(#b)" d="M246.14 52.609c1.164 1.25 1.893 3.03 1.893 5.006 0 3.783-2.668 6.85-5.958 6.85s-6.26-3.077-5.958-6.85c.745-9.303.434-21.931-7.714-26.005 3.617 2.454 8.353 10.977-.052 22.836-1.899 2.68-2.767 5.01-2.192 9.566-3.217-6.254-1.428-15.308 1.012-19.03-3.094 3.826-6.833 7.663-9.697 12.799s-4.852 11.57-4.444 20.59c.045.995.168 1.94.316 2.851 1.517 9.296 9.736 16.472 19.816 16.472 11.059 0 19.983-8.616 20.025-19.244.051-12.927-1.945-21.714-7.047-25.841"/><path fill="url(#c)" d="M238.18 76.932c.509.466.827 1.13.827 1.867 0 1.411-1.164 2.555-2.6 2.555s-2.732-1.148-2.6-2.555c.325-3.47.417-5.643-5.062-8.35 1.579.916 5.341 2.746 1.672 7.169-.829.999-1.207 1.868-.956 3.567-1.405-2.332-.624-5.709.441-7.097-1.35 1.427-2.982 2.857-4.232 4.773s-2.117 4.315-1.939 7.679c.019.37.068.724.138 1.063.61 3.474 4.249 6.143 8.648 6.143 4.827 0 8.722-3.213 8.74-7.177.021-4.82-.85-8.098-3.077-9.637"/><g filter="url(#d)"><path fill="#fff" d="M446.55 198.458h32.407v99.666H446.55z"/></g><g filter="url(#e)"><path fill="#fff" d="M-13.199 198.458h42.156v99.666h-42.156z"/></g><defs><linearGradient id="a" x1="203.652" x2="253.137" y1="9.61" y2="95.321" gradientUnits="userSpaceOnUse"><stop stop-color="#D22F02"/><stop offset=".237" stop-color="#CC2D02"/><stop offset=".538" stop-color="#BD2602"/><stop offset=".872" stop-color="#A31C03"/><stop offset="1" stop-color="#971703"/></linearGradient><linearGradient id="b" x1="213.949" x2="245.141" y1="39.955" y2="93.981" gradientUnits="userSpaceOnUse"><stop stop-color="#FF6100"/><stop offset=".292" stop-color="#FF6D01"/><stop offset=".812" stop-color="#FF8B02"/><stop offset="1" stop-color="#FF9803"/></linearGradient><linearGradient id="c" x1="225.395" x2="237.116" y1="72.383" y2="92.685" gradientUnits="userSpaceOnUse"><stop offset=".005" stop-color="#FF9803"/><stop offset=".995" stop-color="#FAF154"/></linearGradient><filter id="d" width="72.407" height="139.666" x="426.55" y="178.458" color-interpolation-filters="sRGB" filterUnits="userSpaceOnUse"><feFlood flood-opacity="0" result="BackgroundImageFix"/><feBlend in="SourceGraphic" in2="BackgroundImageFix" result="shape"/><feGaussianBlur result="effect1_foregroundBlur_500_506" stdDeviation="10"/></filter><filter id="e" width="82.156" height="139.666" x="-33.199" y="178.458" color-interpolation-filters="sRGB" filterUnits="userSpaceOnUse"><feFlood flood-opacity="0" result="BackgroundImageFix"/><feBlend in="SourceGraphic" in2="BackgroundImageFix" result="shape"/><feGaussianBlur result="effect1_foregroundBlur_500_506" stdDeviation="10"/></filter></defs></svg>