<svg xmlns="http://www.w3.org/2000/svg" width="24" height="24" fill="none"><g fill="#fff" clip-path="url(#a)"><path d="M10.899 15.586q-.356 1.064-.782 2.093a30 30 0 0 1-1.44 2.995.374.374 0 0 0 .218.537l2.198.679a.375.375 0 0 0 .41-.133q.309-.414.574-.869a8 8 0 0 1-.093.877.375.375 0 0 0 .27.437l4.203 1.126a.37.37 0 0 0 .426-.166q.045-.07.085-.143l-.005.118c-.02.18.096.353.275.4l1.677.45a.375.375 0 0 0 .427-.185c.442-.82.863-1.62 1.245-2.568.318-.79.606-1.673.848-2.739l-10.148-2.72a1.2 1.2 0 0 1-.388-.189m10.509-.385c-.312-.651-.884-1.157-1.828-1.41l-4.744-1.272a2.93 2.93 0 0 0-2.252.293 2.93 2.93 0 0 0-1.361 1.757.373.373 0 0 0 .259.48l9.706 2.603v-.002a.373.373 0 0 0 .468-.314c.097-.765.052-1.51-.248-2.135m.17-13.635.01-.044a1.22 1.22 0 0 0-.13-.908 1.22 1.22 0 0 0-.718-.565q-.023-.008-.05-.013a1.23 1.23 0 0 0-.907.13h.001a1.22 1.22 0 0 0-.573.744L16.21 12.111l2.372.636zM5.767 18.547H2.672a.374.374 0 1 0 0 .75h3.095a.375.375 0 1 0 0-.75m1.63-2.627H4.303a.374.374 0 1 0 0 .75h3.095a.375.375 0 1 0 0-.75Zm1.416-6.287A.37.37 0 0 0 9 9.444 3.9 3.9 0 0 1 9.793 8.3c.33-.33.716-.6 1.143-.79a.373.373 0 0 0 0-.684 3.88 3.88 0 0 1-1.935-1.935.373.373 0 0 0-.682 0 3.9 3.9 0 0 1-.791 1.144c-.33.33-.717.6-1.143.791-.189.084-.274.306-.189.494a.37.37 0 0 0 .189.19 3.87 3.87 0 0 1 1.934 1.934c.084.189.305.272.494.189"/></g><defs><clipPath id="a"><path fill="#fff" d="M0 0h24v24H0z"/></clipPath></defs></svg>