<svg xmlns="http://www.w3.org/2000/svg" width="20" height="16" fill="none"><path fill="#fff" d="M17.857 6.727c-.45-.197-.937-.3-1.428-.299H3.57A3.575 3.575 0 0 0 0 10v5a.714.714 0 1 0 1.429 0v-.357a.36.36 0 0 1 .357-.357h16.428a.36.36 0 0 1 .357.357V15A.714.714 0 0 0 20 15v-5a3.58 3.58 0 0 0-2.143-3.273M15.357 0H4.643a2.5 2.5 0 0 0-2.5 2.5v3.214a.178.178 0 0 0 .228.172c.39-.114.794-.172 1.2-.172h.19a.18.18 0 0 0 .178-.158 1.43 1.43 0 0 1 1.418-1.27h2.5a1.43 1.43 0 0 1 1.42 1.27.18.18 0 0 0 .178.158h1.092a.18.18 0 0 0 .179-.158 1.43 1.43 0 0 1 1.417-1.27h2.5a1.43 1.43 0 0 1 1.42 1.27.18.18 0 0 0 .178.158h.188c.406 0 .81.058 1.2.172a.18.18 0 0 0 .228-.172V2.5a2.5 2.5 0 0 0-2.5-2.5"/></svg>