<svg xmlns="http://www.w3.org/2000/svg" width="16" height="16" fill="none"><path fill="#494D4D" d="M14.667 0H1.333C.598 0 0 .652 0 1.455v10.181c0 .803.598 1.455 1.333 1.455h4.668c-.014.58-.115 1.508-.496 1.946a.63.63 0 0 1-.505.236c-.184 0-.333.162-.333.363S4.816 16 5 16h6c.184 0 .333-.163.333-.364s-.149-.363-.333-.363a.63.63 0 0 1-.504-.235c-.38-.436-.483-1.366-.497-1.947h4.668c.735 0 1.333-.652 1.333-1.455V1.455C16 .652 15.402 0 14.667 0M8 12.366c-.369 0-.669-.328-.669-.73s.3-.73.669-.73c.368 0 .669.328.669.73s-.3.73-.669.73m-6.667-2.184V1.455h13.334v8.727z"/></svg>