<svg xmlns="http://www.w3.org/2000/svg" width="140" height="122" fill="none"><path fill="url(#a)" d="M0 0h139.811v122H0z"/><g filter="url(#b)"><circle cx="69.905" cy="36" r="22" fill="#E6790B"/></g><g fill="#fff" clip-path="url(#c)"><path d="m71.67 29.405 2.268-3.965h-8.067l2.268 3.965zm.46 4.983c.74.24 1.218.73 1.535 1.053.068.069.17.173.21.205.044.03.177.096.266.14.12.06.259.13.406.214l3.373-5.835-2.608-4.718-5.009 8.89.611-.08q.136-.01.282-.011c.334 0 .639.046.934.142m-6.04 1.257c.037-.029.14-.134.209-.204.316-.324.795-.812 1.535-1.053a3 3 0 0 1 .933-.142c.304 0 .578.04.807.076l-5.078-8.875-2.608 4.718 3.413 5.903c.19-.116.37-.206.521-.281.09-.045.227-.113.268-.142m9.052 3.68a3 3 0 0 1-.1-.498c-.059-.387-.125-.826-.404-1.21-.281-.386-.68-.584-1.03-.76a3 3 0 0 1-.438-.244 3 3 0 0 1-.36-.335c-.276-.283-.59-.602-1.05-.752-.443-.144-.878-.072-1.262-.009-.187.03-.364.06-.516.06s-.33-.03-.516-.06c-.384-.063-.819-.135-1.263.01-.46.148-.773.468-1.05.75-.127.13-.247.253-.36.336a3 3 0 0 1-.437.244c-.351.176-.75.374-1.03.76-.28.384-.346.823-.404 1.21a3 3 0 0 1-.1.498c-.042.128-.12.278-.203.436-.175.334-.392.75-.392 1.24s.217.906.392 1.24c.083.158.161.308.203.437.045.14.072.313.1.497.058.387.125.827.404 1.21.28.386.679.584 1.03.76.165.082.321.16.437.244.113.083.234.206.36.336.277.282.59.602 1.05.751.444.144.879.072 1.263.01.187-.032.363-.06.516-.06.152 0 .329.028.516.06.219.035.454.074.698.074.185 0 .374-.022.565-.084.46-.15.773-.47 1.049-.752.127-.13.247-.252.36-.335.117-.084.272-.162.437-.244.352-.176.75-.374 1.03-.76.28-.383.346-.823.405-1.21.028-.184.054-.358.1-.497.042-.13.12-.279.203-.437.175-.334.392-.75.392-1.24s-.218-.906-.392-1.24a3 3 0 0 1-.203-.437Zm-5.16 4.948a3.276 3.276 0 0 1-3.272-3.272 3.276 3.276 0 0 1 3.272-3.272 3.276 3.276 0 0 1 3.272 3.272 3.276 3.276 0 0 1-3.272 3.272"/><path d="M69.982 38.971c-1.12 0-2.03.91-2.03 2.03s.91 2.03 2.03 2.03 2.03-.91 2.03-2.03-.91-2.03-2.03-2.03"/></g><path fill="#fff" d="m34.44 89.574 3.667-6.828-.018-.042h-4.206v-1.296h5.844v1.17l-.066.12-3.96 7.53zm5.643-3.054v-1.212h3.9v1.212zm7.792 3.684q-1.308 0-2.19-.924-.876-.93-.876-2.43 0-1.524.87-2.448a2.82 2.82 0 0 1 2.136-.924q.75 0 1.32.33.576.324.858.798h.042V81.21h1.386V90h-1.35v-1.11l.198.252h-.24a2.4 2.4 0 0 1-.87.762q-.558.3-1.284.3m.276-1.17q.84 0 1.386-.594t.546-1.584c0-.99-.186-1.192-.558-1.596a1.8 1.8 0 0 0-1.374-.606q-.852 0-1.398.606t-.546 1.584q0 .984.54 1.59.546.6 1.404.6m6.972 1.17q-1.026 0-1.686-.57-.66-.576-.66-1.566 0-1.002.732-1.578.732-.582 1.902-.582.558 0 1.026.126.468.12.81.324v-.396q0-.66-.438-1.008t-1.14-.348q-.378 0-.666.084a2.4 2.4 0 0 0-.504.198q-.216.12-.444.306l-.228.18-.762-.828.282-.228q.282-.234.642-.432.366-.198.792-.306a4 4 0 0 1 1.014-.114q1.278 0 2.046.666.768.66.768 1.83V90h-1.32v-1.266l.276.432h-.318q-.282.432-.834.738-.552.3-1.29.3m.348-1.05q.756 0 1.272-.528a1.73 1.73 0 0 0 .522-1.26v-.036a2.1 2.1 0 0 0-.714-.372 2.8 2.8 0 0 0-.87-.138q-.708 0-1.116.312t-.408.87q0 .54.354.846t.96.306m5.012 3.474 1.632-3.414.012.804-2.76-6.342h1.452l1.566 3.894.198.6h.042l.222-.606 1.572-3.888h1.416l-3.93 8.952zm11.61-2.418q-.66 0-1.146-.168a2.7 2.7 0 0 1-.846-.474 2.6 2.6 0 0 1-.552-.63l-.192-.324.99-.606.156.246q.156.24.384.438.234.198.54.306.306.102.702.102.552 0 .882-.216.33-.222.33-.606a.65.65 0 0 0-.312-.57q-.306-.21-1.164-.414-1.242-.3-1.74-.762-.492-.468-.492-1.23 0-.816.684-1.326t1.728-.51q.534 0 .948.114.42.114.756.342t.534.48l.198.246-.948.648-.15-.168a1.57 1.57 0 0 0-.792-.492q-.24-.06-.546-.06-.51 0-.816.204-.306.198-.306.492 0 .27.234.474.24.198 1.332.486 1.164.294 1.662.762.504.462.504 1.206 0 .906-.72 1.458t-1.842.552m6.214-.006q-.864 0-1.362-.486t-.498-1.398v-6.294h1.386v6.12q0 .438.186.654t.588.216q.126 0 .276-.03.15-.036.342-.114l.192-.084.246 1.068-.228.108q-.228.102-.504.168a2.5 2.5 0 0 1-.624.072m-2.952-5.37v-1.158h4.11v1.158zM80.936 90v-6.324h1.314v1.122l-.144-.144h.186q.192-.522.678-.852a1.85 1.85 0 0 1 1.464-.294q.204.036.378.108l.174.072-.204 1.284-.168-.066a2 2 0 0 0-.708-.156q-.666 0-1.122.504t-.456 1.416V90zm7.762.204q-1.482 0-2.406-.93-.924-.936-.924-2.436 0-1.416.894-2.388.9-.978 2.388-.978 1.38 0 2.232.846.852.84.852 2.118v.744h-5.61v-.936h4.278a1.7 1.7 0 0 0-.498-1.152q-.456-.468-1.254-.468-.834 0-1.374.588-.534.588-.534 1.614 0 1.074.576 1.65.582.576 1.476.576.39 0 .69-.096.306-.096.564-.27.264-.18.594-.564l.9.696q-.39.546-.786.822-.396.27-.876.414-.48.15-1.182.15m6.34 0q-1.027 0-1.687-.57-.66-.576-.66-1.566 0-1.002.732-1.578.732-.582 1.902-.582.558 0 1.026.126.468.12.81.324v-.396q0-.66-.438-1.008t-1.14-.348q-.378 0-.666.084a2.4 2.4 0 0 0-.504.198q-.216.12-.444.306l-.228.18-.762-.828.282-.228q.282-.234.642-.432.366-.198.792-.306a4 4 0 0 1 1.014-.114q1.278 0 2.046.666.768.66.768 1.83V90h-1.32v-1.266l.276.432h-.318q-.282.432-.834.738-.552.3-1.29.3Zm.347-1.05q.756 0 1.272-.528a1.73 1.73 0 0 0 .522-1.26v-.036a2.1 2.1 0 0 0-.714-.372 2.8 2.8 0 0 0-.87-.138q-.708 0-1.116.312t-.408.87q0 .54.354.846t.96.306m5.728-.63V86.82l3.042-3.144h1.74zM100.249 90v-8.79h1.392V90zm4.284 0-2.268-3.402.942-.99 2.97 4.392zm-58.988 15.204q-1.11 0-1.715-.618-.6-.624-.6-1.764v-4.146h1.386v3.882q0 .768.348 1.134.347.36 1.05.36.684 0 1.151-.486.469-.492.468-1.242v-3.648h1.392V105H47.7v-1.518l.642.636h-.678a2.3 2.3 0 0 1-.846.78 2.6 2.6 0 0 1-1.273.306m5.28-.204v-6.324h1.326v1.116l-.168-.216h.21q.312-.492.888-.798a2.7 2.7 0 0 1 1.29-.306q1.098 0 1.704.612t.606 1.68V105h-1.392v-3.918q0-.696-.336-1.062-.336-.372-1.062-.372t-1.2.486-.474 1.212V105zm7.582 0v-8.79h1.392V105zm6.193.204q-1.524 0-2.478-.954-.948-.954-.948-2.406 0-1.47.96-2.424t2.466-.954q1.512 0 2.472.966t.96 2.412q0 1.44-.948 2.4t-2.484.96m0-1.218q.882 0 1.452-.594.57-.6.57-1.548c0-.948-.19-1.148-.57-1.548q-.564-.606-1.452-.606c-.888 0-1.078.2-1.458.6q-.564.6-.564 1.554c0 .954.188 1.152.564 1.548q.57.594 1.458.594m7.739 1.224q-1.5 0-2.424-.96t-.924-2.418.918-2.412q.924-.954 2.454-.954.534 0 .978.132.444.126.822.39.384.258.804.792l-.984.756a3 3 0 0 0-.516-.516 1.4 1.4 0 0 0-.498-.252 2.3 2.3 0 0 0-.624-.078q-.834 0-1.392.594-.558.588-.558 1.542 0 .96.564 1.56.564.594 1.386.594.36 0 .654-.09.3-.096.528-.264.234-.168.534-.57l1.044.684q-.414.606-.804.888t-.888.432-1.074.15m4.815-1.686v-1.704l3.042-3.144h1.74zM76.29 105v-8.79h1.392V105zm4.284 0-2.268-3.402.942-.99 2.97 4.392zm5.305.204q-1.482 0-2.406-.93-.924-.936-.924-2.436 0-1.416.894-2.388.9-.978 2.388-.978 1.38 0 2.232.846.852.84.852 2.118v.744h-5.61v-.936h4.278a1.7 1.7 0 0 0-.498-1.152q-.456-.468-1.254-.468-.834 0-1.374.588-.534.588-.534 1.614 0 1.074.576 1.65.582.576 1.476.576.39 0 .69-.096.306-.096.564-.27.264-.18.594-.564l.9.696q-.39.546-.786.822-.396.27-.876.414-.48.15-1.182.15m7.084 0q-1.308 0-2.19-.924-.876-.93-.876-2.43 0-1.524.87-2.448a2.82 2.82 0 0 1 2.136-.924q.75 0 1.32.33.576.324.858.798h.042V96.21h1.386V105h-1.35v-1.11l.198.252h-.24a2.4 2.4 0 0 1-.87.762q-.558.3-1.284.3m.276-1.17q.84 0 1.386-.594t.546-1.584c0-.99-.186-1.192-.558-1.596a1.8 1.8 0 0 0-1.374-.606q-.852 0-1.398.606t-.546 1.584q0 .984.54 1.59.546.6 1.404.6"/><defs><linearGradient id="a" x1="69.367" x2="69.195" y1="-4.165" y2="122" gradientUnits="userSpaceOnUse"><stop stop-color="#131515" stop-opacity=".3"/><stop offset="1" stop-color="#131515" stop-opacity=".8"/></linearGradient><clipPath id="c"><path fill="#fff" d="M59.344 25.44h21.12v21.12h-21.12z"/></clipPath><filter id="b" width="74" height="74" x="32.905" y="9" color-interpolation-filters="sRGB" filterUnits="userSpaceOnUse"><feFlood flood-opacity="0" result="BackgroundImageFix"/><feColorMatrix in="SourceAlpha" result="hardAlpha" values="0 0 0 0 0 0 0 0 0 0 0 0 0 0 0 0 0 0 127 0"/><feOffset dy="10"/><feGaussianBlur stdDeviation="7.5"/><feComposite in2="hardAlpha" operator="out"/><feColorMatrix values="0 0 0 0 0.901961 0 0 0 0 0.47451 0 0 0 0 0.0431373 0 0 0 0.5 0"/><feBlend in2="BackgroundImageFix" result="effect1_dropShadow_497_148"/><feBlend in="SourceGraphic" in2="effect1_dropShadow_497_148" result="shape"/></filter></defs></svg>