<svg xmlns="http://www.w3.org/2000/svg" width="17" height="20" fill="none"><path fill="#131515" d="M10.439 20c.668 0 1.252-.583 1.252-1.252v-2.924h.835c.502 0 .836-.334.836-.835v-8.35H3.34v8.35c0 .501.335.835.836.835h.836v2.924c0 .669.583 1.252 1.252 1.252s1.252-.583 1.252-1.252v-2.924h1.672v2.924c0 .669.583 1.252 1.252 1.252Zm5.011-5.011c.669 0 1.252-.584 1.252-1.252V7.89c0-.666-.583-1.252-1.252-1.252s-1.252.586-1.252 1.252v5.847c0 .668.583 1.252 1.252 1.252m-14.198 0c.669 0 1.252-.584 1.252-1.252V7.89c0-.666-.583-1.252-1.252-1.252S0 7.224 0 7.89v5.847c0 .668.583 1.252 1.252 1.252M12.36.126a.4.4 0 0 0-.584 0l-1.121 1.118-.052.051q-.996-.499-2.24-.5H8.34q-1.245.001-2.24.5l-.052-.051L4.926.126a.4.4 0 0 0-.583 0 .4.4 0 0 0 0 .583l1.084 1.084a4.5 4.5 0 0 0-.942.846c-.66.782-1.08 1.8-1.138 2.902l-.002.034a5 5 0 0 0-.006.227h10.023q0-.114-.005-.227l-.002-.034a4.9 4.9 0 0 0-1.139-2.902 4.5 4.5 0 0 0-.941-.846L12.358.71a.4.4 0 0 0 0-.583ZM6.261 4.342a.626.626 0 1 1 0-1.252.626.626 0 0 1 0 1.252m4.178 0a.626.626 0 1 1 0-1.252.626.626 0 0 1 0 1.252"/></svg>