<svg xmlns="http://www.w3.org/2000/svg" width="242" height="179" fill="none"><path fill="url(#a)" d="M0 0h242v179H0z"/><path fill="#fff" d="M74.64 35V24.584h2.16V35zm-3.225-9.448v-2.008h8.592v2.008zm12.68 9.72q-1.984 0-3.249-1.248-1.256-1.255-1.256-3.16 0-1.936 1.264-3.176 1.272-1.248 3.24-1.248 1.96 0 3.224 1.256 1.272 1.248 1.272 3.168 0 1.905-1.264 3.16-1.255 1.248-3.232 1.248Zm0-1.824q1.023 0 1.695-.72.68-.728.68-1.872t-.68-1.864-1.696-.72q-1.04 0-1.72.72-.672.72-.672 1.864t.672 1.872q.68.72 1.72.72Zm9.486 1.824q-1.696 0-2.816-1.208-1.113-1.216-1.112-3.192 0-1.968 1.128-3.192t2.832-1.224q.871 0 1.576.376.713.367 1.064.96h.056v-4.336h2.12V35h-2.056v-1.408l.24.336h-.296q-.384.6-1.112.976a3.55 3.55 0 0 1-1.624.368m.488-1.8q.984 0 1.64-.728t.656-1.88q0-1.16-.664-1.88a2.13 2.13 0 0 0-1.632-.72q-.992 0-1.648.72t-.656 1.88q0 1.145.648 1.88.656.728 1.656.728m8.951 1.8q-1.352 0-2.192-.744-.84-.751-.84-1.992 0-1.28.976-2.032t2.536-.752q.665 0 1.256.144.593.135 1.008.36v-.496q0-.784-.544-1.232-.536-.448-1.424-.448a2.96 2.96 0 0 0-1.536.392 3.2 3.2 0 0 0-.568.4l-.264.224-1.128-1.176.392-.328q.4-.328.88-.592t1.072-.408a5.4 5.4 0 0 1 1.344-.152q1.8 0 2.816.88 1.024.88 1.024 2.456V35h-2.048v-1.768l.488.704h-.536q-.375.576-1.096.96-.711.376-1.616.376m.576-1.496q.936 0 1.552-.648.617-.648.624-1.656v-.016a2.8 2.8 0 0 0-.84-.36 3.7 3.7 0 0 0-1.016-.136q-.855 0-1.376.368t-.52 1.08q0 .64.432 1.008.44.36 1.144.36m6.401 4.712 2.136-4.552.024 1.072-3.64-8.288h2.224l1.936 4.768.248.784h.056l.272-.792 1.88-4.76h2.16l-5.08 11.768zm7.954-11.312 1.064-1.496a1.19 1.19 0 0 1-.768-1.144q0-.552.392-.944a1.35 1.35 0 0 1 .984-.392q.591 0 .984.392.4.392.4.968 0 .312-.12.616-.112.304-.424.752l-1.4 2.016zm7.052 8.096q-.864 0-1.512-.192a3.8 3.8 0 0 1-1.144-.56 3.8 3.8 0 0 1-.8-.8l-.296-.424 1.408-1 .224.304a2.5 2.5 0 0 0 1.272.912q.399.12.936.12.655 0 1.048-.24a.77.77 0 0 0 .392-.696.7.7 0 0 0-.352-.624q-.353-.232-1.568-.512-1.6-.376-2.296-1.008t-.696-1.616q0-1.12.944-1.808.951-.688 2.392-.688.72 0 1.304.152.591.151 1.048.448.464.288.752.624l.288.336-1.352 1.016-.2-.216a2 2 0 0 0-.496-.392 2.1 2.1 0 0 0-.632-.256 3 3 0 0 0-.728-.08q-.592 0-.96.24-.368.232-.368.568t.312.576q.312.233 1.648.552 1.576.376 2.272 1.008.696.624.696 1.568 0 1.208-.984 1.952-.977.736-2.552.736m12.516 3.472q-.864 0-1.552-.208a4.1 4.1 0 0 1-1.24-.592 3.5 3.5 0 0 1-.864-.864l-.32-.472 1.592-.944.224.32q.224.328.536.568.312.247.704.376.4.128.856.128 1.16 0 1.76-.64t.6-1.768v-.936h-.048q-.424.615-1.128.96-.696.344-1.568.344-1.673 0-2.76-1.168-1.08-1.169-1.08-3.12 0-1.928 1.12-3.104 1.128-1.184 2.784-1.184.872 0 1.576.36.704.352 1.088.936h.536l-.48.528V26.72h2.056v7.824q0 2.016-1.184 3.104-1.184 1.096-3.208 1.096m.072-5.512q.992 0 1.624-.688.64-.696.64-1.848 0-1.128-.64-1.808-.632-.68-1.616-.68-.976 0-1.616.672t-.64 1.824q0 1.208.632 1.872.64.656 1.616.656m10.394 2.04q-1.984 0-3.248-1.248-1.256-1.255-1.256-3.16 0-1.936 1.264-3.176 1.272-1.248 3.24-1.248 1.96 0 3.224 1.256 1.272 1.248 1.272 3.168 0 1.905-1.264 3.16-1.256 1.248-3.232 1.248m0-1.824q1.024 0 1.696-.72.68-.728.68-1.872t-.68-1.864-1.696-.72q-1.04 0-1.72.72-.672.72-.672 1.864t.672 1.872q.68.72 1.72.72m8.567 1.824q-1.352 0-2.192-.744-.84-.751-.84-1.992 0-1.28.976-2.032t2.536-.752q.663 0 1.256.144a4 4 0 0 1 1.008.36v-.496q0-.784-.544-1.232-.536-.448-1.424-.448a2.96 2.96 0 0 0-1.536.392 3.2 3.2 0 0 0-.568.4l-.264.224-1.128-1.176.392-.328a5.7 5.7 0 0 1 .88-.592q.48-.264 1.072-.408a5.4 5.4 0 0 1 1.344-.152q1.8 0 2.816.88 1.024.88 1.024 2.456V35h-2.048v-1.768l.488.704h-.536q-.376.576-1.096.96-.713.376-1.616.376m.576-1.496q.936 0 1.552-.648.615-.648.624-1.656v-.016a2.8 2.8 0 0 0-.84-.36 3.7 3.7 0 0 0-1.016-.136q-.857 0-1.376.368-.52.367-.52 1.08 0 .64.432 1.008.44.36 1.144.36M163.36 35V23.456h2.136V35zm5.403-5.64q-.585 0-.992-.4a1.34 1.34 0 0 1-.4-.984q0-.576.4-.976.407-.4.992-.4.583 0 .984.4.408.4.408.976 0 .584-.408.984-.4.4-.984.4m0 5.76q-.585 0-.992-.4a1.34 1.34 0 0 1-.4-.984q0-.577.4-.976.407-.4.992-.4.583 0 .984.4.408.4.408.976 0 .584-.408.984-.4.4-.984.4M58.399 55.264q-2.585 0-4.28-1.704t-1.696-4.312q0-2.592 1.72-4.28 1.728-1.688 4.264-1.688.833 0 1.592.208.76.209 1.392.6.64.392.984.768l.352.376-1.224 1.184-.296-.304a3.2 3.2 0 0 0-.712-.568 3.5 3.5 0 0 0-.936-.408 4 4 0 0 0-1.152-.152q-1.751 0-2.96 1.176-1.208 1.176-1.208 3.088 0 1.905 1.192 3.104 1.2 1.2 2.96 1.2a4.1 4.1 0 0 0 1.216-.176 4.5 4.5 0 0 0 1.072-.496 4 4 0 0 0 .776-.632l.28-.312L63 53.144l-.384.432q-.383.425-1.064.84-.68.408-1.472.624a6.2 6.2 0 0 1-1.68.224Zm9.834 0q-1.92 0-3.16-1.248-1.232-1.256-1.232-3.152 0-1.92 1.24-3.16 1.248-1.24 3.152-1.24t3.144 1.256q1.248 1.248 1.248 3.144t-1.232 3.152q-1.231 1.248-3.16 1.248m0-1.552q1.12 0 1.872-.792.752-.8.752-2.056 0-1.264-.76-2.048-.751-.792-1.864-.792-1.127 0-1.88.792-.744.784-.744 2.048 0 1.256.744 2.056.744.792 1.88.792M74.26 55v-8.264h1.696v1.4l-.16-.208h.208q.368-.64 1.096-1.048a3.1 3.1 0 0 1 1.552-.416q.912 0 1.584.424.68.416.976 1.176a3.1 3.1 0 0 1 1.2-1.184 3.4 3.4 0 0 1 1.664-.416q1.424 0 2.168.832t.744 2.336V55H85.22v-5.04q0-1-.424-1.48-.424-.488-1.288-.488-.84 0-1.424.672-.576.665-.576 1.656V55h-1.776v-5.032q0-1.008-.432-1.488-.425-.488-1.272-.488-.84 0-1.416.688-.576.68-.576 1.64V55zm14.781 3.472V46.736h1.704v1.656l-.4-.464h.456q.385-.648 1.144-1.056a3.5 3.5 0 0 1 1.68-.408q1.68 0 2.8 1.216 1.12 1.208 1.12 3.176 0 1.944-1.136 3.176-1.127 1.232-2.792 1.232a3.7 3.7 0 0 1-1.664-.368q-.735-.376-1.08-.976h-.056v4.552zm4.232-4.736q1.08 0 1.792-.808.712-.809.712-2.072 0-1.28-.728-2.064-.72-.792-1.776-.792-1.063 0-1.792.8-.728.792-.728 2.064 0 1.255.712 2.064a2.32 2.32 0 0 0 1.808.808M99.182 55V43.456h1.775V55zm7.665.264q-1.887 0-3.072-1.232-1.184-1.232-1.184-3.168 0-1.88 1.16-3.136 1.168-1.264 3.016-1.264 1.792 0 2.896 1.096 1.113 1.095 1.112 2.76v.92h-7.224v-1.192h5.488q-.047-.895-.656-1.488-.6-.6-1.616-.6-1.08 0-1.76.776-.672.768-.672 2.104 0 1.376.744 2.168.752.784 1.904.784.52 0 .912-.136.393-.144.712-.392.32-.248.728-.792l1.232.808q-.488.8-1.016 1.192a3.9 3.9 0 0 1-1.168.592q-.632.2-1.536.2m8.744 0q-1.12 0-1.784-.64-.656-.648-.656-1.824v-8.32h1.776v8.016q0 .632.256.944.264.304.784.304.152 0 .32-.032a5 5 0 0 0 .432-.128l.256-.088.104 1.464-.272.096q-.264.096-.552.152a3.5 3.5 0 0 1-.664.056m-3.832-7.048v-1.48h5.216v1.48zm10.666 7.048q-1.887 0-3.072-1.232-1.184-1.232-1.184-3.168 0-1.88 1.16-3.136 1.168-1.264 3.016-1.264 1.792 0 2.896 1.096 1.113 1.095 1.112 2.76v.92h-7.224v-1.192h5.488q-.048-.895-.656-1.488-.6-.6-1.616-.6-1.08 0-1.76.776-.672.768-.672 2.104 0 1.376.744 2.168.752.784 1.904.784.52 0 .912-.136.393-.144.712-.392.32-.248.728-.792l1.232.808q-.488.8-1.016 1.192a3.9 3.9 0 0 1-1.168.592q-.632.2-1.536.2m12.591.008q-.984 0-1.688-.32a3.6 3.6 0 0 1-1.2-.872 4 4 0 0 1-.728-1.152l-.24-.6 1.584-.608.16.4q.168.392.456.752.296.36.696.568t.968.208q.928 0 1.504-.568a1.87 1.87 0 0 0 .576-1.384q0-.912-.608-1.408-.609-.504-1.56-.504h-1v-1.496h.896q.848 0 1.376-.464.528-.472.528-1.28 0-.736-.488-1.192-.489-.456-1.312-.456-.465 0-.808.16-.345.151-.592.432-.24.272-.416.608l-.168.328-1.512-.72.264-.512q.272-.512.744-.968.48-.456 1.112-.704.631-.248 1.48-.248 1.631 0 2.552.856.928.848.928 2.2 0 .96-.448 1.616-.441.648-1.248.936v.056q.992.312 1.544 1.056.552.736.552 1.816 0 1.48-1.08 2.472t-2.824.992M144.4 55V43.456h1.768v4.472h.048a2.76 2.76 0 0 1 1.08-1.048 3.2 3.2 0 0 1 1.608-.408q1.431 0 2.224.832.8.832.8 2.28V55h-1.776v-5.056q0-.952-.472-1.456-.473-.504-1.352-.504-.904 0-1.528.704a2.4 2.4 0 0 0-.624 1.648V55zm12.106.264q-1.36 0-2.216-.76-.855-.76-.856-2.008 0-1.272.968-2.024.976-.752 2.52-.752.681 0 1.296.152.624.152 1.032.384v-.504q0-.848-.584-1.344-.583-.496-1.528-.496-.511 0-.88.12-.36.112-.64.288a3.6 3.6 0 0 0-.536.416l-.256.232-1.072-1 .352-.328q.36-.328.808-.592a4 4 0 0 1 1-.424q.561-.16 1.344-.16 1.72 0 2.712.88.993.872.992 2.416V55h-1.696v-1.824l.464.704h-.512q-.375.6-1.104.992a3.3 3.3 0 0 1-1.608.392m.376-1.36a2.28 2.28 0 0 0 1.688-.696q.688-.704.688-1.736v-.016a2.8 2.8 0 0 0-.912-.416 4 4 0 0 0-1.104-.152q-.943 0-1.504.392-.56.392-.56 1.16 0 .672.472 1.072.473.392 1.232.392m10.679 1.36q-.903 0-1.648-.392-.736-.392-1.144-1.008h-.456l.4-.472V55h-1.704V43.456h1.776v4.432h.048a3.06 3.06 0 0 1 1.128-1.024 3.4 3.4 0 0 1 1.64-.4q1.673 0 2.792 1.208 1.12 1.208 1.12 3.176 0 1.936-1.128 3.176t-2.824 1.24m-.328-1.528q1.08 0 1.792-.8.72-.808.72-2.08t-.72-2.064a2.32 2.32 0 0 0-1.792-.792q-1.047 0-1.784.792-.728.784-.728 2.064t.72 2.08 1.792.8M173.23 55v-8.264h1.784V55zm.896-9.832q-.457 0-.784-.32a1.07 1.07 0 0 1-.328-.784q0-.472.328-.776.327-.312.784-.312.471 0 .784.312.312.304.312.776 0 .456-.312.784a1.05 1.05 0 0 1-.784.32m6.262 10.096q-1.12 0-1.784-.64-.656-.648-.656-1.824v-8.32h1.776v8.016q0 .632.256.944.264.304.784.304.152 0 .32-.032a5 5 0 0 0 .432-.128l.256-.088.104 1.464-.272.096q-.264.096-.552.152a3.5 3.5 0 0 1-.664.056m-3.832-7.048v-1.48h5.216v1.48zm9.89 7.056q-.833 0-1.464-.208a3.5 3.5 0 0 1-1.12-.592 3.2 3.2 0 0 1-.76-.84l-.264-.448 1.304-.792.216.336q.216.328.528.584.32.255.712.392.391.128.928.128.736 0 1.168-.28a.9.9 0 0 0 .44-.808.82.82 0 0 0-.384-.712q-.376-.264-1.576-.544-1.617-.368-2.312-.992-.688-.624-.688-1.616 0-1.064.92-1.736.92-.68 2.288-.68.711 0 1.272.16.56.152 1.016.472.456.312.704.664l.256.344-1.256.8-.2-.232a2 2 0 0 0-.464-.416 1.8 1.8 0 0 0-.608-.264 3 3 0 0 0-.744-.088q-.665 0-1.08.28-.408.271-.408.648a.83.83 0 0 0 .32.656q.32.272 1.696.608 1.608.375 2.28 1 .672.623.672 1.544 0 1.185-.952 1.912-.945.72-2.44.72"/><circle cx="55" cy="109" r="25" fill="#fff"/><path fill="#131515" d="M54.739 100.984a2.989 2.989 0 1 0 0-5.978 2.989 2.989 0 0 0 0 5.978M53.787 102h.512a2.77 2.77 0 0 1 2.772 2.772v4.94c0 .628.25 1.231.694 1.675l1.913 1.913a5.13 5.13 0 0 1 1.374 2.49l1.284 5.656a1.351 1.351 0 0 1-2.639.562l-1.969-5.398-4.944-4.048a3.27 3.27 0 0 1-1.193-2.652l.147-3.794-1.764 1.427-.589 2.974a1.285 1.285 0 0 1-2.53-.45l.541-3.41a3 3 0 0 1 1.174-1.937l2.43-1.8a4.68 4.68 0 0 1 2.787-.92"/><path fill="#131515" d="M62.272 109.733a1.23 1.23 0 0 1-1.646.777l-2.81-.939a1.2 1.2 0 0 1-.745-1.111l-1.533-2.758.18-3.31 3.038 4.278 2.99 1.656c.474.296.69.873.526 1.407m-14.68 12.925a1.29 1.29 0 0 0 1.756-.006l3.634-4.17a5.3 5.3 0 0 0 1.04-1.827l1.288-3.918-3.72-2.827-.495 5.875-3.613 5.09a1.29 1.29 0 0 0 .11 1.783"/><path fill="#fff" d="M46.192 156.204q-1.47 0-2.364-.87t-.894-2.25q0-.9.462-1.746t1.374-1.89l2.004-2.394 1.23.978-1.806 2.172q-.414.468-1.116.894-.696.426-1.032 1.992h-.918q.3-1.494 1.266-2.16.972-.666 2.286-.666 1.158 0 1.95.804.798.804.798 2.046 0 1.308-.906 2.202-.9.888-2.334.888m-.006-1.458q.696 0 1.134-.438.438-.444.438-1.17 0-.714-.444-1.152-.438-.438-1.128-.438-.696 0-1.14.432t-.444 1.158q0 .72.444 1.164t1.14.444m7.138 1.458q-.816 0-1.416-.258a2.9 2.9 0 0 1-1.002-.702 2.8 2.8 0 0 1-.57-.894l-.162-.45 1.464-.504.12.288q.126.282.324.522.204.234.492.372.288.132.696.132.666 0 1.086-.408t.42-1.086q0-.666-.414-1.068t-1.038-.402q-.36 0-.666.138-.306.132-.636.534l-1.482-.606.552-4.404h4.824v1.476h-3.6l-.264 2.064.042.012q.324-.264.732-.408.414-.15.93-.15 1.146 0 1.908.792.768.792.768 2.034 0 1.32-.87 2.148-.864.828-2.238.828m5.922-4.632q-.924 0-1.554-.63t-.63-1.542q0-.918.63-1.548t1.554-.63q.918 0 1.548.63t.63 1.548q0 .912-.63 1.542-.624.63-1.548.63m0-1.104a.96.96 0 0 0 .726-.306q.288-.306.288-.762 0-.468-.288-.768a.96.96 0 0 0-.726-.306.97.97 0 0 0-.726.306q-.294.306-.294.768 0 .438.294.756a.96.96 0 0 0 .726.312m-.486 5.04 5.874-8.262.93.666-5.868 8.256zm6.324.678q-.924 0-1.554-.63t-.63-1.542q0-.918.63-1.548t1.554-.63q.918 0 1.548.63t.63 1.548q0 .912-.63 1.542-.624.63-1.548.63m0-1.104a.96.96 0 0 0 .726-.306q.288-.306.288-.762 0-.468-.288-.768a.96.96 0 0 0-.726-.306.97.97 0 0 0-.726.306q-.294.306-.294.768 0 .438.294.756a.96.96 0 0 0 .726.312"/><circle cx="121" cy="109" r="25" fill="#fff"/><path fill="#131515" d="M119.715 113.184q-.415 1.24-.912 2.442a35 35 0 0 1-1.68 3.494.436.436 0 0 0 .254.627l2.565.791a.44.44 0 0 0 .477-.154q.362-.483.671-1.014-.022.496-.108 1.023a.435.435 0 0 0 .314.51l4.904 1.313a.43.43 0 0 0 .497-.193q.051-.082.099-.168l-.006.138a.436.436 0 0 0 .321.468l1.957.524a.436.436 0 0 0 .497-.215c.517-.957 1.008-1.891 1.453-2.997.372-.921.707-1.952.99-3.195l-11.841-3.173a1.4 1.4 0 0 1-.452-.221m12.261-.449c-.364-.76-1.031-1.351-2.133-1.645l-5.534-1.484-.05-.013a3.42 3.42 0 0 0-2.578.355 3.42 3.42 0 0 0-1.588 2.049.435.435 0 0 0 .302.562l11.325 3.035v-.002a.437.437 0 0 0 .546-.366c.113-.893.061-1.761-.29-2.491m.199-15.909.012-.051a1.42 1.42 0 0 0-.152-1.06 1.43 1.43 0 0 0-.839-.658q-.027-.01-.057-.016a1.43 1.43 0 0 0-1.059.153h.002c-.32.184-.567.488-.669.867l-3.501 13.069 2.767.741zm-18.447 19.813h-3.611a.436.436 0 1 0 0 .874h3.611a.436.436 0 1 0 0-.874m1.902-3.064h-3.61a.436.436 0 1 0 0 .874h3.611a.438.438 0 1 0-.001-.874m1.651-7.337a.44.44 0 0 0 .221-.22c.224-.498.538-.951.923-1.335a4.5 4.5 0 0 1 1.334-.923.435.435 0 0 0 0-.797 4.5 4.5 0 0 1-1.334-.922 4.5 4.5 0 0 1-.923-1.335c-.098-.221-.355-.318-.576-.221a.44.44 0 0 0-.22.221 4.52 4.52 0 0 1-2.257 2.257c-.221.098-.32.357-.221.577a.43.43 0 0 0 .221.22c.497.223.949.538 1.333.923.386.384.699.837.924 1.335.098.22.355.318.575.22"/><path fill="#fff" d="M112.36 156.21q-1.44 0-2.298-.732-.852-.732-.852-1.878 0-.78.444-1.35a2.36 2.36 0 0 1 1.14-.81v-.042a2.4 2.4 0 0 1-.906-.72 1.8 1.8 0 0 1-.36-1.128q0-1.044.78-1.698t2.052-.654q1.278 0 2.052.654.78.654.78 1.698 0 .654-.366 1.14-.366.48-.9.708v.042q.696.234 1.14.786.45.552.45 1.368 0 1.152-.858 1.884t-2.298.732m0-1.41q.702 0 1.104-.372t.402-.966c0-.594-.134-.722-.402-.978q-.396-.39-1.104-.39-.69 0-1.098.378-.402.378-.402.978 0 .594.402.972c.402.378.634.378 1.098.378m0-3.93q.576 0 .912-.318.342-.318.342-.834c0-.516-.114-.62-.342-.828q-.342-.312-.912-.312c-.57 0-.684.104-.912.312q-.342.312-.342.828c0 .516.114.622.342.834q.342.318.912.318m4.446 4.608 3.516-6.522-.024-.042h-4.032v-1.506h5.946v1.344l-.066.138-3.864 7.362zm8.212-3.906q-.924 0-1.554-.63t-.63-1.542q0-.918.63-1.548t1.554-.63q.918 0 1.548.63t.63 1.548q0 .912-.63 1.542-.624.63-1.548.63m0-1.104a.96.96 0 0 0 .726-.306q.288-.306.288-.762 0-.468-.288-.768a.96.96 0 0 0-.726-.306.97.97 0 0 0-.726.306q-.294.306-.294.768 0 .438.294.756a.96.96 0 0 0 .726.312m-.486 5.04 5.874-8.262.93.666-5.868 8.256zm6.324.678q-.924 0-1.554-.63t-.63-1.542q0-.918.63-1.548t1.554-.63q.918 0 1.548.63t.63 1.548q0 .912-.63 1.542-.624.63-1.548.63m0-1.104a.96.96 0 0 0 .726-.306q.288-.306.288-.762 0-.468-.288-.768a.96.96 0 0 0-.726-.306.97.97 0 0 0-.726.306q-.294.306-.294.768 0 .438.294.756a.96.96 0 0 0 .726.312"/><circle cx="187" cy="109" r="25" fill="#fff"/><path fill="#131515" d="M182.875 100.75h8.25l.001 8.487 2.749 2.749V100.75a2.75 2.75 0 0 0-2.75-2.75h-8.25c-.818 0-1.546.367-2.05.936l2.05 2.05zM198 118.056 177.944 98 176 99.944l4.125 4.125v13.181a2.75 2.75 0 0 0 2.75 2.75h8.25c1.34 0 2.455-.963 2.698-2.233l2.233 2.233zm-11 .569a1.376 1.376 0 1 1 .001-2.751 1.376 1.376 0 0 1-.001 2.751m-4.125-4.125v-7.681l7.681 7.681z"/><path fill="#fff" d="M178.026 147.204q1.464 0 2.358.876.894.87.894 2.244 0 .9-.462 1.746-.456.846-1.374 1.896l-2.004 2.388-1.23-.972 1.806-2.178q.414-.462 1.11-.888.702-.432 1.038-1.998h.924q-.306 1.5-1.278 2.166-.966.66-2.28.66-1.158 0-1.95-.804c-.792-.804-.792-1.218-.792-2.046q0-1.308.9-2.196.906-.894 2.34-.894m0 1.458q-.69 0-1.134.444-.438.438-.438 1.164 0 .72.438 1.158.444.438 1.134.438.696 0 1.14-.432.444-.438.444-1.158 0-.726-.444-1.17t-1.14-.444m7.926 7.338v-2.502l.114-.282v-4.494l.654.618h-.69l-2.52 3.486h3.102l.39-.066h1.71v1.428h-6.756v-1.356l3.924-5.424h1.71V156zm5.394-4.428q-.924 0-1.554-.63t-.63-1.542q0-.918.63-1.548t1.554-.63q.918 0 1.548.63t.63 1.548q0 .912-.63 1.542-.624.63-1.548.63m0-1.104a.96.96 0 0 0 .726-.306q.288-.306.288-.762 0-.468-.288-.768a.96.96 0 0 0-.726-.306.97.97 0 0 0-.726.306q-.294.306-.294.768 0 .438.294.756a.96.96 0 0 0 .726.312m-.486 5.04 5.874-8.262.93.666-5.868 8.256zm6.324.678q-.924 0-1.554-.63t-.63-1.542q0-.918.63-1.548t1.554-.63q.918 0 1.548.63t.63 1.548q0 .912-.63 1.542-.624.63-1.548.63m0-1.104a.96.96 0 0 0 .726-.306q.288-.306.288-.762 0-.468-.288-.768a.96.96 0 0 0-.726-.306.97.97 0 0 0-.726.306q-.294.306-.294.768 0 .438.294.756a.96.96 0 0 0 .726.312"/><defs><linearGradient id="a" x1="120.069" x2="119.855" y1="-6.111" y2="179.001" gradientUnits="userSpaceOnUse"><stop stop-color="#131515" stop-opacity=".3"/><stop offset="1" stop-color="#131515" stop-opacity=".8"/></linearGradient></defs></svg>