<svg xmlns="http://www.w3.org/2000/svg" width="225" height="95" fill="none"><g filter="url(#a)"><rect width="213" height="83" x="6" y="2" fill="#fff" fill-opacity=".8" rx="10"/><path fill="#131515" d="M23.235 31v-9.991h3.698q1.465 0 2.358.893.9.893.9 2.393 0 1.507-.921 2.386t-2.456.88h-2.68v-1.41h2.569q.864 0 1.36-.481.502-.49.502-1.34t-.502-1.353q-.495-.51-1.319-.51H24.84V31zm10.402.237q-1.193 0-1.946-.663-.753-.67-.754-1.793 0-1.137.845-1.8.85-.663 2.204-.663.622 0 1.165.14.544.132.921.356v-.454q0-.753-.516-1.165-.51-.418-1.325-.418-.447 0-.768.097a2.7 2.7 0 0 0-.572.244q-.251.14-.495.35l-.245.209-.907-.914.314-.28a4.5 4.5 0 0 1 .726-.509q.411-.23.9-.363a4.5 4.5 0 0 1 1.172-.132q1.493 0 2.372.767.886.768.886 2.121V31H36.1v-1.528l.363.558h-.405q-.327.51-.97.858-.634.35-1.45.35Zm.37-1.207a2 2 0 0 0 1.472-.607q.607-.615.607-1.493v-.028a2.4 2.4 0 0 0-.816-.398 3.3 3.3 0 0 0-.984-.146q-.823 0-1.304.356-.482.348-.482 1.005 0 .606.412.962.412.35 1.095.35Zm5.555.97v-7.284h1.584V31zm.796-8.658a.96.96 0 0 1-.698-.287.95.95 0 0 1-.293-.697q0-.42.293-.69a1 1 0 0 1 .698-.273.945.945 0 0 1 .976.963q0 .405-.279.697a.92.92 0 0 1-.697.287M43.186 31v-7.284h1.5v1.312l-.182-.175h.224q.216-.6.788-.983a2.17 2.17 0 0 1 1.675-.35q.223.036.411.112l.189.07-.154 1.5-.21-.077a2.5 2.5 0 0 0-.425-.118 2 2 0 0 0-.405-.049 1.69 1.69 0 0 0-1.304.586q-.524.585-.523 1.577V31zm10.718 0-2.317-7.284h1.577l1.34 4.626.216.781h.049l.223-.753 1.438-4.654h1.437l1.437 4.633.23.767h.042l.216-.76 1.347-4.64h1.514L60.323 31H58.85l-1.514-4.716-.209-.74h-.049l-.209.733L55.383 31zm9.941 0v-7.284h1.584V31zm.796-8.658a.96.96 0 0 1-.698-.287.95.95 0 0 1-.293-.697q0-.42.293-.69a1 1 0 0 1 .698-.273.945.945 0 0 1 .977.963q0 .405-.28.697a.92.92 0 0 1-.697.287m5.556 8.895q-.99 0-1.57-.565t-.58-1.605v-7.29h1.585v7.053q0 .53.223.796.223.258.684.258.14 0 .3-.035t.383-.119l.224-.09.195 1.255-.251.105q-.252.105-.544.167-.286.07-.65.07Zm-3.384-6.195v-1.326h4.66v1.326zM73.097 31V20.855h1.577v3.894h.041a2.6 2.6 0 0 1 .97-.907q.635-.357 1.451-.356 1.256 0 1.947.718.698.72.698 1.968V31h-1.584v-4.486q0-.838-.412-1.263-.405-.426-1.186-.426-.824 0-1.374.6-.544.6-.544 1.417V31zm16.896-9.775-.914 1.305a.9.9 0 0 1 .46.335q.195.25.196.6 0 .44-.314.753a1.05 1.05 0 0 1-.774.307 1.05 1.05 0 0 1-1.082-1.068q0-.236.09-.48.099-.252.364-.635l1.144-1.682zm-2.644 0-.914 1.305a.9.9 0 0 1 .46.335q.195.25.196.6a1.064 1.064 0 0 1-1.088 1.06 1.064 1.064 0 0 1-1.09-1.067q0-.238.099-.481a3.5 3.5 0 0 1 .355-.635l1.152-1.682zm4.253 12.81V23.716h1.528v1.493l-.349-.404h.39a2.63 2.63 0 0 1 1.02-.956q.669-.37 1.5-.37 1.485 0 2.47 1.067.99 1.06.99 2.805 0 1.738-1.012 2.812-1.004 1.074-2.442 1.074-.858 0-1.514-.342-.648-.348-.955-.879h-.042v4.019zm3.747-4.151q.983 0 1.597-.705.621-.711.621-1.835 0-1.13-.635-1.82a2.06 2.06 0 0 0-1.576-.692q-.957 0-1.598.712-.635.705-.635 1.807 0 1.123.62 1.828.622.705 1.606.705M100.677 31V20.855h1.577v3.894h.042q.335-.552.97-.907.635-.357 1.451-.356 1.256 0 1.947.718.697.72.697 1.968V31h-1.583v-4.486q0-.838-.412-1.263-.405-.426-1.186-.426-.823 0-1.375.6-.543.6-.544 1.417V31zm12.032.237q-1.73 0-2.819-1.102t-1.088-2.77q0-1.695 1.095-2.79 1.102-1.096 2.812-1.096c1.71 0 2.074.37 2.805 1.11q1.102 1.102 1.102 2.776 0 1.66-1.088 2.77-1.088 1.102-2.819 1.102m0-1.388q1.004 0 1.661-.69.662-.699.662-1.801 0-1.095-.662-1.793-.663-.698-1.661-.698-1.011 0-1.668.698-.655.69-.655 1.793t.655 1.8q.657.69 1.668.69ZM118.133 31v-7.284h1.507v1.29l-.195-.243h.244q.35-.573 1.012-.928a3.06 3.06 0 0 1 1.458-.356q1.263 0 1.961.719.697.718.697 1.974V31h-1.583v-4.486q0-.816-.398-1.25-.392-.431-1.221-.432-.816 0-1.361.58-.537.57-.537 1.416V31zm11.913.237q-1.681 0-2.735-1.081-1.053-1.082-1.053-2.798 0-1.647 1.026-2.763 1.032-1.116 2.7-1.116 1.59 0 2.567.97t.977 2.435v.837h-6.419v-1.06h4.884v-.008a1.95 1.95 0 0 0-.572-1.318q-.531-.538-1.437-.538-.957 0-1.563.684-.6.677-.6 1.856 0 1.228.656 1.905.662.677 1.688.677.453 0 .795-.112.35-.119.642-.328.294-.21.663-.67l1.061.754q-.44.67-.9.998a3.6 3.6 0 0 1-1.019.502q-.558.174-1.361.174m11.879 0q-1.73 0-2.819-1.102t-1.088-2.77q0-1.695 1.095-2.79 1.102-1.096 2.812-1.096c1.71 0 2.074.37 2.805 1.11q1.102 1.102 1.102 2.776 0 1.66-1.088 2.77-1.09 1.102-2.819 1.102m0-1.388q1.005 0 1.66-.69.663-.699.663-1.801 0-1.095-.663-1.793-.662-.698-1.66-.698-1.011 0-1.668.698-.655.69-.655 1.793t.655 1.8q.657.69 1.668.69ZM147.828 31v-8.03q0-1.068.656-1.703.663-.642 1.751-.642a3.3 3.3 0 0 1 1.13.202l.245.084-.203 1.263-.181-.063a2 2 0 0 0-.377-.097 2 2 0 0 0-.411-.042q-.468 0-.747.279-.279.272-.279.746V31zm4.912 0v-8.03q0-1.068.656-1.703.662-.642 1.751-.642a3.3 3.3 0 0 1 1.13.203l.244.083-.202 1.263-.181-.063a2 2 0 0 0-.377-.097 2 2 0 0 0-.412-.042q-.467 0-.746.279-.279.272-.279.746V31zm-6.21-5.958v-1.326h2.093v1.326zm6.998 0v-1.326h2.596v1.326zm-4.925 0v-1.326h4.925v1.326zm9.251-1.089.907-1.297a.94.94 0 0 1-.468-.335.98.98 0 0 1-.188-.6q0-.44.314-.747a1.05 1.05 0 0 1 .774-.314q.461 0 .775.314.314.307.314.754 0 .237-.098.488a3.6 3.6 0 0 1-.356.628l-1.151 1.681zm2.644 0 .907-1.297a.94.94 0 0 1-.467-.335.97.97 0 0 1-.189-.6q0-.44.314-.747.315-.314.775-.314c.46 0 .565.105.774.314q.314.307.314.754 0 .237-.098.488a3.6 3.6 0 0 1-.355.628l-1.152 1.681zM168.144 31V20.855h1.577v3.894h.042q.335-.552.969-.907.635-.357 1.452-.356 1.256 0 1.946.718.698.72.698 1.968V31h-1.584v-4.486q0-.838-.411-1.263-.405-.426-1.187-.426-.823 0-1.374.6-.544.6-.544 1.417V31zm10.797.237q-1.194 0-1.947-.663-.753-.67-.753-1.793 0-1.137.844-1.8.85-.663 2.204-.663.621 0 1.166.14.543.132.921.356v-.454q0-.753-.517-1.165-.509-.418-1.325-.418-.447 0-.768.097a2.7 2.7 0 0 0-.572.244q-.25.14-.495.35l-.244.209-.907-.914.314-.28a4 4 0 0 1 1.625-.872 4.5 4.5 0 0 1 1.172-.132q1.494 0 2.372.767.887.768.887 2.121V31h-1.514v-1.528l.362.558h-.404q-.328.51-.97.858-.635.35-1.451.35Zm.369-1.207a2 2 0 0 0 1.473-.607q.607-.615.607-1.493v-.028a2.4 2.4 0 0 0-.817-.398 3.3 3.3 0 0 0-.984-.146q-.822 0-1.304.356-.482.348-.482 1.005 0 .606.412.962.412.35 1.095.35Zm9.546 1.207a3.05 3.05 0 0 1-1.465-.349 2.8 2.8 0 0 1-1.012-.879h-.39l.349-.411V31h-1.528V20.855h1.583v3.9h.042q.342-.544.991-.906.656-.37 1.493-.37 1.458 0 2.449 1.06t.991 2.812q0 1.717-1.005 2.805-.998 1.08-2.498 1.081m-.307-1.353q.97 0 1.598-.698.628-.704.628-1.835 0-1.124-.635-1.82-.628-.699-1.591-.699-.927 0-1.576.698-.642.698-.642 1.828t.628 1.828a2.06 2.06 0 0 0 1.59.698M193.941 31v-7.284h1.584V31zm.795-8.658a.96.96 0 0 1-.697-.287.95.95 0 0 1-.293-.697.9.9 0 0 1 .293-.69 1 1 0 0 1 .697-.273.944.944 0 0 1 .977.963q0 .405-.279.697a.92.92 0 0 1-.698.287m5.556 8.895q-.99 0-1.569-.565-.58-.565-.58-1.605v-7.29h1.584v7.053q0 .53.224.796.222.258.683.258.14 0 .3-.035t.384-.119l.223-.09.196 1.255-.252.105q-.25.105-.544.167-.286.07-.649.07m-3.383-6.195v-1.326h4.66v1.326z"/><rect width="104" height="26" x="22" y="43" fill="#131515" fill-opacity=".2" rx="13"/><path fill="#131515" d="M40.719 60v-7.212h1.291V60zm-2.36-6.582v-1.189h6.012v1.189zM44.924 60v-5.752h1.199v1.015l-.125-.13h.163q.174-.472.613-.771a1.66 1.66 0 0 1 .966-.304q.185 0 .374.038.19.033.353.103l.163.07-.217 1.162-.152-.065a1.7 1.7 0 0 0-.63-.141q-.607 0-1.025.456-.412.456-.412 1.307V60zm5.104 2.377 1.493-3.088.01.727-2.507-5.768h1.33l1.4 3.527.195.565h.033l.206-.57 1.433-3.522h1.291l-3.587 8.129H50.03Zm10.758-2.193q-.787 0-1.243-.439-.45-.445-.45-1.27v-5.709h1.27v5.568q0 .38.168.575.169.195.532.196.12 0 .255-.033.141-.033.315-.108l.179-.082.26.955-.217.109a2.3 2.3 0 0 1-.477.168q-.26.07-.592.07m-2.691-4.872v-1.064h3.766v1.064zM63.25 60v-7.982h1.27v3.022h.032q.277-.423.776-.7.505-.276 1.194-.277.987 0 1.53.548.548.549.548 1.509V60h-1.27v-3.581q0-.657-.32-.972-.32-.32-.938-.32-.684 0-1.118.45t-.434 1.08V60zm6.99 0v-5.752h1.27V60zm.646-6.832a.77.77 0 0 1-.564-.233.76.76 0 0 1-.234-.56q0-.33.234-.547a.8.8 0 0 1 .564-.223.74.74 0 0 1 .554.223.74.74 0 0 1 .222.553.78.78 0 0 1-.222.554.72.72 0 0 1-.554.233m4.323 7.022q-.614 0-1.053-.157a2.4 2.4 0 0 1-1.264-1.004l-.168-.293.895-.548.136.222q.141.218.347.402.212.178.489.276.282.093.64.093.5 0 .798-.201a.62.62 0 0 0 .304-.543.59.59 0 0 0-.288-.526q-.288-.19-1.053-.38-1.128-.277-1.574-.695-.44-.423-.439-1.112 0-.743.613-1.205.619-.46 1.569-.461.482 0 .857.103t.678.304q.305.201.483.429l.185.222-.858.592-.135-.152a1.5 1.5 0 0 0-.315-.266 1.3 1.3 0 0 0-.396-.168 2 2 0 0 0-.5-.055q-.46 0-.738.185-.27.179-.27.445 0 .238.21.418.213.18 1.216.45 1.042.27 1.493.695.455.417.455 1.101 0 .825-.656 1.33-.651.498-1.66.499Zm7.532-.19-1.84-5.752h1.26l1.03 3.587.196.7h.038l.206-.69 1.091-3.597h1.134l1.107 3.587.201.694h.038l.19-.694 1.036-3.587h1.194L87.793 60h-1.15l-1.161-3.609-.206-.705h-.038l-.201.705L83.897 60zm10.343.184q-1.362 0-2.209-.846-.84-.846-.84-2.209 0-1.285.813-2.176.82-.89 2.192-.89 1.26 0 2.03.765.776.765.776 1.938v.684h-5.123v-.858h3.907v-.005a1.53 1.53 0 0 0-.445-1.048q-.412-.428-1.145-.428-.76 0-1.253.537-.495.532-.494 1.47 0 .983.526 1.498.527.516 1.346.516a2.1 2.1 0 0 0 .63-.087q.276-.087.515-.239.245-.157.548-.5l.809.652q-.359.483-.722.727-.359.239-.792.37-.435.13-1.07.13Zm6.74 0q-1.361 0-2.208-.846-.84-.846-.841-2.209 0-1.285.814-2.176.82-.89 2.192-.89 1.259 0 2.03.765.776.765.776 1.938v.684h-5.123v-.858h3.907v-.005a1.53 1.53 0 0 0-.445-1.048q-.412-.428-1.145-.428-.76 0-1.253.537-.494.532-.494 1.47 0 .983.526 1.498.527.516 1.346.516.353 0 .629-.087.277-.087.516-.239.244-.157.548-.5l.809.652q-.359.483-.722.727-.358.239-.792.37-.435.13-1.07.13Zm4.896-1.573v-1.558l2.714-2.805h1.584zM103.906 60v-7.982h1.27V60zm3.907 0-2.083-3.115.852-.911L109.311 60z"/></g><defs><filter id="a" width="253" height="123" x="-14" y="-18" color-interpolation-filters="sRGB" filterUnits="userSpaceOnUse"><feFlood flood-opacity="0" result="BackgroundImageFix"/><feColorMatrix in="SourceAlpha" result="hardAlpha" values="0 0 0 0 0 0 0 0 0 0 0 0 0 0 0 0 0 0 127 0"/><feOffset dy="4"/><feGaussianBlur stdDeviation="3"/><feComposite in2="hardAlpha" operator="out"/><feColorMatrix values="0 0 0 0 0 0 0 0 0 0 0 0 0 0 0 0 0 0 0.1 0"/><feBlend in2="BackgroundImageFix" result="effect1_dropShadow_647_130"/><feBlend in="SourceGraphic" in2="effect1_dropShadow_647_130" result="shape"/></filter></defs></svg>